<svg id="Capa_1" data-name="Capa 1" xmlns="http://www.w3.org/2000/svg" viewBox="0 0 218.84 139.62"><defs><style>.cls-1{fill:#fff;}</style></defs><title>blanc_vect</title><path class="cls-1" d="M63.6,29.26c.21,0,.27,0,.21-.1h-.42C63.32,29.23,63.39,29.26,63.6,29.26ZM113,142.53a.94.94,0,0,0-.65.23.77.77,0,0,0-.3.63c0,.56.32.84.95.84s1-.28,1-.84a.76.76,0,0,0-.28-.62A1,1,0,0,0,113,142.53ZM64.43,29.05H64c-.07.07,0,.11.2.11S64.5,29.12,64.43,29.05ZM65.78,95c0,.07,0,.1.11.1A.1.1,0,0,0,65.78,95Zm26.08,51.93c0-.53,0-1.32,0-2.38s.06-1.85.06-2.38c0-.11-.06-.16-.17-.16l-.71,0-.71,0c-.08,0-.15.09-.22.27-1.11,2.93-2,5.14-2.6,6.62-.15.37-.25.55-.29.55s-.15-.22-.34-.67q-1.2-2.88-2.86-6.54c-.09-.19-.15-.28-.2-.28a12.33,12.33,0,0,0-1.41.12c-.1,0-.16.07-.16.15,0,.53,0,1.32.08,2.38s.07,1.85.07,2.38,0,1.27-.07,2.29-.08,1.78-.08,2.29c0,.08.06.13.18.13l.37,0a3.25,3.25,0,0,1,.72,0l.36,0c.11,0,.17-.08.17-.23,0-.59,0-1.48,0-2.66s0-2.08,0-2.67a.21.21,0,0,1,0-.15.17.17,0,0,1,.09.1c.79,1.8,1.38,3.15,1.76,4.06l.67,1.56c0,.08.28.12.71.12s.47,0,.5-.09c.26-.63.47-1.15.61-1.56.87-2.17,1.42-3.51,1.66-4,0-.05,0-.08.09-.08s.06.05.06.14c0,.58,0,1.45-.06,2.62s-.05,2-.05,2.62c0,.15.06.23.17.23l.38,0a3.07,3.07,0,0,1,.38,0,2.85,2.85,0,0,1,.37,0l.38,0a.15.15,0,0,0,.17-.17c0-.51,0-1.26-.06-2.27S91.86,147.41,91.86,146.91ZM117.36,110a1.43,1.43,0,0,0,.54-.18,1.13,1.13,0,0,0,.36-.36,1.14,1.14,0,0,0,.13-.57v-8.66a3.51,3.51,0,0,0-.3-1.51,3.12,3.12,0,0,0-.8-1.09,4,4,0,0,0-1.18-.74,8.05,8.05,0,0,0-1.44-.44,13.36,13.36,0,0,0-1.58-.22c-.55,0-1.08-.06-1.6-.06a5.78,5.78,0,0,0-2.44.46A4,4,0,0,0,107.38,98a6.35,6.35,0,0,0-.95,2.3,15,15,0,0,0-.31,3.2v.13a20,20,0,0,0,.16,2.54,5.45,5.45,0,0,0,.69,2.06,3.64,3.64,0,0,0,1.52,1.38,5.87,5.87,0,0,0,2.67.51c.94,0,1.81,0,2.61-.13l2-.19.89.25A4.4,4.4,0,0,0,117.36,110Zm-1-1.9a.78.78,0,0,0-.22,0h-.27c-.53,0-1.13.11-1.8.2a18.84,18.84,0,0,1-2.29.15,6.33,6.33,0,0,1-1.52-.16,2.28,2.28,0,0,1-1.11-.63,2.92,2.92,0,0,1-.67-1.29,8.56,8.56,0,0,1-.23-2.17v-1.39a9.56,9.56,0,0,1,.17-1.92,5.44,5.44,0,0,1,.46-1.35,2.8,2.8,0,0,1,.68-.87,3,3,0,0,1,.84-.49,3.74,3.74,0,0,1,.92-.22c.32,0,.63,0,1,0a8.38,8.38,0,0,1,1.63.14,5,5,0,0,1,1.13.35,2.39,2.39,0,0,1,.72.52,2,2,0,0,1,.4.6,2.14,2.14,0,0,1,.18.63c0,.21,0,.4,0,.59Zm-30.46,6.32c-.16-.42-.29-.63-.38-.63a4.77,4.77,0,0,0-.81.1,4,4,0,0,1-1.69,0,7.51,7.51,0,0,0-.86-.08c-.14,0-.27.21-.39.64q-.73,2.19-1.17,3.27c-1.59,4.35-2.55,7-2.87,7.9L73.94,137a3.15,3.15,0,0,0-.21.76q0,.24.3.24h3.44c.22,0,.54-.86,1-2.56s.81-2.57,1.17-2.6,1.19,0,2.87,0h2.41c1.59,0,2.58,0,2.95,0s.91.89,1.35,2.59S90,138,90.27,138s.48,0,.87,0a8.35,8.35,0,0,1,.87-.05,7.87,7.87,0,0,1,.84.05c.38,0,.66,0,.85,0s.37-.07.37-.21-1.53-4.45-4.6-13.13Q86.22,115.35,85.85,114.41Zm-1.08,14.67H83.2c-1,0-1.46,0-1.5,0-.78-.06-1.16-.29-1.16-.67s1-3.4,3.16-9.36c.37.79,1,2.45,1.88,5A31.67,31.67,0,0,1,87,128.4C87,128.85,86.22,129.08,84.77,129.08ZM65.26,95.4a.1.1,0,0,0,.11.1C65.37,95.43,65.33,95.4,65.26,95.4Zm23.09,11.85a.11.11,0,0,0-.06,0h.06Zm-25.17-78h-.41c-.07.07,0,.1.21.1S63.25,29.33,63.18,29.26Zm60.91,119.47c0-.15,0-.37,0-.67s0-.51,0-.65a3.38,3.38,0,0,0-.35-1.78,1.92,1.92,0,0,0-1.77-.75,2.69,2.69,0,0,0-1.39.44c-.39.28-.71.51-.94.7a3.72,3.72,0,0,1-.16-.86c0-.07,0-.11-.06-.11l-.77.12-.79.13c-.06,0-.09,0-.09.1l0,.08a11,11,0,0,1,.31,2.71c0,.37,0,.91,0,1.64s0,1.27,0,1.63c0,.1,0,.16.14.16h1.32c.09,0,.13-.06.13-.17v-4.13c0-.21.22-.45.65-.72a2,2,0,0,1,1-.39,1.16,1.16,0,0,1,1,.39,1.89,1.89,0,0,1,.23,1.1c0,.19,0,.46,0,.83v.82c0,.23,0,.57,0,1s0,.8,0,1,0,.2.13.2H124c.1,0,.14,0,.14-.15,0-.31,0-.77,0-1.38S124.09,149,124.09,148.73Zm5.77-1.28c-.37-.21-.56-.42-.56-.62s.18-.49.53-.58l.89-.12c.08,0,.13,0,.13-.09a3,3,0,0,0-.13-.57,4.13,4.13,0,0,0-.17-.56.15.15,0,0,0-.14-.09,3,3,0,0,0-1.78.52,1.89,1.89,0,0,0-.77,1.61,1.61,1.61,0,0,0,.57,1.28,9.36,9.36,0,0,0,1.06.63q.57.31.57.69c0,.53-.43.8-1.3.8l-.2,0a1.11,1.11,0,0,0-.26,0q-.12,0-.12.12a3.15,3.15,0,0,0,0,.44c0,.21,0,.36,0,.46s0,.3.11.33a1.8,1.8,0,0,0,.47,0,2.88,2.88,0,0,0,1.81-.57,1.94,1.94,0,0,0,.82-1.64,1.85,1.85,0,0,0-.56-1.38A6.73,6.73,0,0,0,129.86,147.45ZM77.22,82.92a.1.1,0,0,0-.1-.11C77.12,82.88,77.15,82.92,77.22,82.92ZM79.3,70.75c0,.07,0,.1.11.1A.1.1,0,0,0,79.3,70.75Zm-2,12.06a.1.1,0,0,0-.11-.1C77.22,82.78,77.26,82.81,77.33,82.81Zm-11.86,12c0,.07,0,.11.1.11S65.54,94.77,65.47,94.77ZM76.7,83.33a.1.1,0,0,0,.11.11A.1.1,0,0,0,76.7,83.33Zm23.66,18.51a9.62,9.62,0,0,1,1.71-1.14h-.41a2.16,2.16,0,0,1-1.09.31c-.59.07-1,.11-1.2.11l2.29-1.15c0-.14-.11-.21-.31-.21a10.56,10.56,0,0,0-4.37.94,10.62,10.62,0,0,1-4.37.93H91.47q.11-.3,1-.51c.59-.14,1.22-.28,1.92-.42l2-.42a3.59,3.59,0,0,0,1.4-.52H97.5L100,98.52a.31.31,0,0,0,.21-.11l.11-.1h-.21c-.21.07-.68.19-1.4.36s-1.2.3-1.41.37a7.43,7.43,0,0,1-1.66.36l-1.25.16h-.52c.27-.07.74-.21,1.4-.42s1.36-.43,2.08-.68l2.08-.67q1-.32,1.41-.42a2.93,2.93,0,0,0,.62-.21,7.48,7.48,0,0,0,.73-.31l.21-.1h-.21l-3.74,1h-.21a3.67,3.67,0,0,1,1.35-.57,4,4,0,0,0,1.35-.58H99.16c.07,0,.25-.13.52-.41a5.3,5.3,0,0,0-.88.15,5.81,5.81,0,0,1-.78.16,1.3,1.3,0,0,1,.57-.31,1.41,1.41,0,0,0,.57-.31h-.52c-.28.07-.74.15-1.4.25s-1.35.25-2.08.42-1.42.31-2.08.42-1.13.19-1.4.26a3,3,0,0,1-1.1.21H89.49a6.9,6.9,0,0,1,1.15-.21A16.31,16.31,0,0,0,92.35,97,7,7,0,0,0,94,96.38c.49-.24.76-.5.84-.78h-.42A48.31,48.31,0,0,1,87,96.7q-3.75.26-7.39.26t-7.07-.21a46.35,46.35,0,0,1-7-.94l.11-.1h.21V95.5a66.3,66.3,0,0,0,9.15-9,89,89,0,0,0,7.49-10.4,3,3,0,0,0,.36-.57l.36-.67a.31.31,0,0,1,.11-.21.34.34,0,0,0,.1-.21c-.07,0-.17.07-.31.21a.31.31,0,0,1-.11.21c-.13.21-.43.64-.88,1.3l-.88,1.3-.11.1V77.2l-.2.21a2.48,2.48,0,0,0-.42.57c-.14.24-.28.47-.42.67l-.62.84v.1l.31-.21a6.48,6.48,0,0,1-1.3,1.93c-.52.52-1.06,1-1.61,1.5v-.1l.73-1.09c.34-.52.71-1.07,1.09-1.67s.74-1.12,1.09-1.61a9.73,9.73,0,0,1,.83-1,3.15,3.15,0,0,0,.52-.83,3.44,3.44,0,0,1,.52-.83c1.39-1.8,2.72-3.61,4-5.41a57.54,57.54,0,0,0,3.58-5.72l.11-.1v.31l-.11.1c-.14.28-.38.73-.72,1.36l-1.15,2c-.41.73-.8,1.41-1.14,2s-.59,1-.73,1.25A3.45,3.45,0,0,0,85.12,73a.4.4,0,0,0,.32-.31A54.77,54.77,0,0,0,92.2,61.6,30.19,30.19,0,0,0,95,48.91a17.21,17.21,0,0,0-2.34-9.2,18.52,18.52,0,0,0-6.13-6.13,27.82,27.82,0,0,0-8.48-3.43,41,41,0,0,0-9.36-1.1,27.35,27.35,0,0,0-3.43.21l-3.43.42h-.31a2.07,2.07,0,0,1,.57-.16,1.77,1.77,0,0,0,.57-.16h-.52c-.07,0-.43.07-1.09.21a9.67,9.67,0,0,0-1.51.42,23.58,23.58,0,0,0-3.89,1.47c-.2-.53-.55-.9-1.14-.62,0,.07,0,.1,0,0h0c.12-.34.47-2.15.47-2.15s.71-2.26-1.55-1c.08.27-2.75,2.26-2.75,3.31-.12-.51-1.78-4.25-3-1,.26-.09-.95,2.33-.95,2.33a2.24,2.24,0,0,0,.09,2.5,18.79,18.79,0,0,1,.79,2.65,15.73,15.73,0,0,0-1.06,1.41,8.29,8.29,0,0,0-1.51,4.73,4.2,4.2,0,0,0,.73,2.29,1.29,1.29,0,0,0,.46.31,1.33,1.33,0,0,1,.47.31,2.4,2.4,0,0,1,.42,1.09.82.82,0,0,0,.73.78l.88.06h.13a10,10,0,0,1-1.52,5.09,7.62,7.62,0,0,1-1.3-.09s-1.81-5.52-6-3.37l-.18-.43s4.49-2.41,1.47-6.81a5.35,5.35,0,0,1-1.12-4.92c.17-.17,1.55,1,1.55,1s2.07-5.7-1.47-8.11C40.4,31,31.42,22.4,22.54,29c.08.18-6.91,4.06-4.32,11.57a9.57,9.57,0,0,0,.69.94l-1.64.44s-1.38,0-.95,1.64c.09.26,0,2.76.35,3S6.92,50,13,59.07a6.54,6.54,0,0,0,7.91,1.43c-.2.13-.58.46-.58.46l-.77.53a11.88,11.88,0,0,1-3,7.33c.26.09-1.63,3.19-.51,5.52-.09-.09-6.82,8-4.83,14.07.25,0,1.63-.09,1.63-.09l1,.09h.78l.86-.69,1.21-.35L18.05,87l.86-.35,1.38.09s6.13-.09,13.9,4.14c0,.1.24.2.49.09-.22.3-.57.74-.7.71.94,1.75,8.24,4.92,13.45,7l.09,0,.07,0,1.14.43.09,0,.18.07h0l.57.22,0,0,.36.13.53.19.17.07L51,100l.19.07,0,0,.3.1h0l.06,0,0,0,.14,0a4.63,4.63,0,0,0,.94.27l.66.24,0,0,.16.07.41.2.19.1a3.17,3.17,0,0,1,.36.23.67.67,0,0,1,.14.09,4.08,4.08,0,0,1,.39.31l.12.1h0l.26.27s0,0,0,0l.09.11a2.56,2.56,0,0,1,.2.26.57.57,0,0,1,.08.13,2.07,2.07,0,0,1,.19.32v0a.83.83,0,0,1,.07.13l.12.29,0,.11s0,0,0,0a3,3,0,0,1,.09.32.74.74,0,0,1,0,.14l.06.32h0s0,.1,0,.16a2.11,2.11,0,0,1,0,.26.92.92,0,0,1,0,.16c0,.13,0,.25,0,.37v0a7,7,0,0,1-1.24,3.78c-2.68,2.68-2.59,5.53-2.94,5.18a4.06,4.06,0,0,1-.15,1.34,1.55,1.55,0,0,0-.05.23c0,.06,0,.12,0,.18l-.06.24c0,.06,0,.13,0,.19s-.05.16-.07.25l-.06.2c0,.08,0,.16-.07.24l-.09.27c0,.11-.07.22-.11.33s-.05.16-.07.24a1.07,1.07,0,0,0-.07.19l-.08.23c0,.06,0,.12-.07.17a2.25,2.25,0,0,0-.08.24l-.06.13c0,.12-.09.22-.13.32s0,0,0,0-.07.16-.1.23a.25.25,0,0,1,0,.07s0,.1-.07.14l0,.06-.06.09s0,0,0,0l-.06,0a1.69,1.69,0,0,1-.43.19l-.07,0a2.72,2.72,0,0,1-.51.08H48.9l-.62-.08a6.57,6.57,0,0,1-2.27-.72c-3.11-2.76-5.27-2.51-5.7-3-.86-.78,0-2.76,0-2.76s2.94-4.49,2.76-4.49A4.38,4.38,0,0,0,45.83,108l-.43-1.21c-9.58,3.45-17.43-.18-17.34-.44-10.18-2.93-11.74-9.57-11.74-9.57s-1.72.17-1.81-.17c-.35,1.89,4.83,7.24,4.83,7.24,5.18,5.09,16.66,6,16.66,5.87,4.14,3.71,1.9,6.56,1.81,6.47-1.73,2,.52,2.42.52,2.42l2.33.77S48,122.23,47.91,122a4.43,4.43,0,0,0,.44.14c.06,1.82.1,3.24.1,4.26,0,1.26-.06,3.13-.16,5.63,0,.65,0,1.26-.08,1.83a16,16,0,0,0-4.45-2.71s-2.93-1.64-3.19-2.16c-1.38-2.15.26-2.93.17-3a43.58,43.58,0,0,0,4.41-4.23,8.22,8.22,0,0,1-1.39-.43c-.95.43-3.53,3.54-3.79,3.71-3,2.85-1.21,4.15-1.38,3.8.52,1.64,7.5,5.61,7.07,5.52,2.94,1.3,1,3.28.61,3.28-2.25.95-6-.6-6.13-.77-.43-1.13-5.87-4-5.87-4a12,12,0,0,1-1.9-1.47c-3.36-3.28-.52-4.14-.52-4.49,1.39-.52,3.37-2.93,3.37-2.93a13.35,13.35,0,0,1,3.19-4.66s-1.12-1.21-1.2-1.21c-.69-.17-3,3.54-2.76,3.45a4.77,4.77,0,0,0-2.25.17c-1-.08-3.8,1.73-3.88,1.65-.52-.18.69-2.94.34-3,2.85-5.35-.52-6-.69-6.29-2.33-1.13-12.68-9.76-12.77-9.93-.78-1.38-1.9-2.67-1.9-2.85a24.93,24.93,0,0,0-2-2.93c-1.3-1.64-.61-3.88-.87-3.88C10.71,93.24,12,89.1,12,89.1s-1,0-1.3-.43a10.94,10.94,0,0,1-1,3.45C8.82,92.89,8.9,97.47,9,98c2.59,8.11,17.34,16.74,17.34,16.82a1.34,1.34,0,0,1,1.21,1.9,24.19,24.19,0,0,0-1.21,3c-.86,1,.17,5.52.17,5.35.78-.69,6.22-1.38,6.22-1.38l-1.64,1.64a2.73,2.73,0,0,0-1.86,2.18c-.06-1.19-.13-2.27-.13-2.27l-1.81.26s1.21,11.82-1,13.72c0,.26-1.82,6.56,3,7.25.34.17,5,1.47,5.61,2.42.34-.09,4.31,1.81,7-2.16.09,0,1.9-3.71,1.9-3.71l-.6-.86s-3.54-1.3-4.4-.95A4,4,0,0,1,35.14,136c.17.09.17-.43.17-.43l-1.73.43s-.86,3.37,1.3,5.27c.26-.18,1.81,1.89,6.38,2.07.26.17-1,3.1-1.64,3.19.43,0-2.5,2.33-4.57.52.09.26-3.54-2.16-5.18-1.81.17.17-3.1-1.73-2.33-3.45.26,0,.09-1.13,1.12-4.23-.08.34.95-.95.61-6.91,0,0,0,0,0-.1A5.35,5.35,0,0,0,32.72,134a35.42,35.42,0,0,1,4.92,3.11c.69.94,5,2.58,5.09,2.32,3.11.65,4.68-.36,5.48-1.56a.36.36,0,0,0,.3.11c.18,0,.45,0,.81,0a7.69,7.69,0,0,1,.82-.05,7.25,7.25,0,0,1,.8.05c.35,0,.62,0,.79,0s.38-.19.38-.56q0-2.19-.07-6.55T52,124.29a.47.47,0,0,1,.12-.37.57.57,0,0,1,.19.24c1.76,4.42,3.05,7.75,3.9,10,.64,1.65,1.13,2.93,1.48,3.84.1.19.63.29,1.59.29.66,0,1-.07,1.1-.22.59-1.54,1-2.82,1.36-3.84q2.89-8,3.68-9.85c0-.12.12-.19.21-.19s.12.11.12.32q0,2.16-.12,6.45t-.12,6.45c0,.37.13.56.38.56s.46,0,.84,0a8.15,8.15,0,0,1,.84-.05,7.85,7.85,0,0,1,.83.05c.37,0,.65,0,.83,0s.39-.14.39-.43c0-1.22,0-3.08-.13-5.56s-.13-4.35-.13-5.59,0-3.24.11-5.84.12-4.55.12-5.85c0-.27-.13-.41-.39-.41s-.86,0-1.56-.06-1.22-.07-1.57-.07c-.18,0-.35.22-.5.66q-3.67,10.8-5.76,16.28c-.33.9-.55,1.35-.65,1.35a5.54,5.54,0,0,1-.75-1.66c-1.57-4.17-3.42-8.87-5.53-14.05.64-1.11,1.43-2.2,1.26-2.25,0-1,4.23-6.39,4.05-6.56a10.55,10.55,0,0,0,.74-1.84q3.2.83,6.46,1.34a75.33,75.33,0,0,0,11.54.88c2.56,0,5.1-.1,7.59-.31a71.32,71.32,0,0,0,7.49-1,5.69,5.69,0,0,0,.57-.1,5.27,5.27,0,0,0,.68-.21l.31-.11h-.31l-4.37.68-.5.06a.09.09,0,0,1,.08.1.09.09,0,0,1-.1.1.1.1,0,0,1-.11-.1s0-.08.05-.09a29.85,29.85,0,0,1-3.73.29c.22,0,.3,0,.25-.1H83.67c-.07.07.14.1.62.1h-.83a4.61,4.61,0,0,1-.93-.1,25.12,25.12,0,0,1,5-.78,21.64,21.64,0,0,0,5-.88c1.11-.35,2.18-.73,3.22-1.15a17.65,17.65,0,0,0,3-1.56A15.63,15.63,0,0,0,100.36,101.84Zm-1.3-1.24h.21a.61.61,0,0,1-.42.1C98.85,100.63,98.92,100.6,99.06,100.6Zm-1.67-.84c0,.07,0,.11-.1.11s-.1,0-.1-.11Zm.73-1.87c0,.07,0,.11-.1.11s-.1,0-.1-.11Zm-.41.11c0,.07,0,.1-.06.1s-.05,0-.05-.1ZM80.65,78.13a.1.1,0,0,1,.11.11c0,.07,0,.1-.11.1s-.1,0-.1-.1S80.58,78.13,80.65,78.13Zm-.1.21c.07,0,.1,0,.1,0s0,.06-.1.06-.11,0-.11-.06S80.48,78.34,80.55,78.34Zm-.11.11c.07,0,.11,0,.11.1s0,.1-.11.1a.1.1,0,0,1,0-.2Zm-.46.72s0,0,0-.1l.1-.1c0,.13,0,.2-.1.2a.1.1,0,0,1-.1.11C79.93,79.21,79.94,79.17,80,79.17ZM39.79,112l-.34-.6L38.33,110l1.12-.35h.69s1.12-.25,1.47,0L41,110.76l-.52.86-.6.95ZM90.53,96.54h.31a9.36,9.36,0,0,1-2.86.62c-1,.07-2,.11-3,.11H84.4Zm-1.25,1c0,.07,0,.1,0,.1s0,0,0-.1Zm-5.4-.31a.09.09,0,0,1,.1.1.1.1,0,0,1-.1.11.1.1,0,0,1-.11-.11C83.77,97.3,83.81,97.27,83.88,97.27Zm1.77.73h.41a19.86,19.86,0,0,1-2.13.26c-.66,0-1.37,0-2.13,0H80.55A20.57,20.57,0,0,0,83,98.15,23.64,23.64,0,0,1,85.65,98ZM70.46,97c1.59,0,3.17,0,4.73.1s3.14.1,4.74.1a4.93,4.93,0,0,1,.62.06c.27,0,.48,0,.62,0a6.33,6.33,0,0,1-1.56.21H78.05c-1.39,0-2.74,0-4-.11s-2.67-.21-4.06-.41Zm9.78,1.4a1.51,1.51,0,0,1-.42,0,2,2,0,0,1-.52,0c-.14,0-.17,0-.1,0h1.14C80.41,98.31,80.38,98.33,80.24,98.36ZM74.1,98.2c0,.07,0,.11,0,.11s0,0,0-.11Zm-4.36-1.35a.1.1,0,0,1-.11.11c-.07,0-.1,0-.1-.11Zm-3.85-.52.88,0c.45,0,.68.09.68.16v.1a8.54,8.54,0,0,1-.89,0,1.83,1.83,0,0,1-.88-.26Zm1.25,10.51a.1.1,0,0,1-.11.1.09.09,0,0,1-.1-.1Zm-1.57-12c0,.07,0,.1-.1.1s-.1,0-.1-.1,0-.11.1-.11,0-.1.1-.1,0-.1.11-.1.1,0,.1.1,0,.1-.1.1A.1.1,0,0,1,65.57,94.88Zm-.2.62c0,.07,0,.1-.11.1s-.1,0-.1-.1,0-.1.1-.1a.1.1,0,0,1,.11-.11c.07,0,.1,0,.1.11A.09.09,0,0,1,65.37,95.5Zm.1.73c0,.07,0,.1-.15.1s-.16,0-.16-.1ZM66,95a.09.09,0,0,1-.1.1.1.1,0,0,1-.11.11c-.07,0-.1,0-.1-.11a.09.09,0,0,1,.1-.1c0-.07,0-.1.11-.1s0-.11.1-.11.1,0,.1.11S66.06,95,66,95Zm-.21-.41.11-.11c.14-.14.24-.21.31-.21C66.2,94.46,66.06,94.57,65.78,94.57Zm2.08-1.67a4.23,4.23,0,0,1-.41.36,4.64,4.64,0,0,0-.42.37,4.07,4.07,0,0,1-.62.52H66.3l.73-.73c.14-.14.33-.31.57-.52s.47-.41.68-.62a7.75,7.75,0,0,0,.83-.73h.1Zm-.31-13.41a.1.1,0,0,1,.11-.11.1.1,0,0,1,.1.11.09.09,0,0,1-.1.1C67.58,79.59,67.55,79.56,67.55,79.49Zm.21-.21c0-.07,0-.11.1-.11s0-.1.11-.1.1,0,.1.1,0,.11-.1.11,0,.1-.11.1S67.76,79.35,67.76,79.28Zm.41-.52a.1.1,0,0,1,.11-.11c.07,0,.1,0,.1.11s0,.1-.1.1S68.17,78.83,68.17,78.76Zm.21-.21c0-.07,0-.1.11-.1s0-.11.1-.11.1,0,.1.11,0,.1-.1.1,0,.1-.1.1S68.38,78.62,68.38,78.55ZM68.8,78c0-.07,0-.1.1-.1a.1.1,0,0,1,.11-.11.09.09,0,0,1,.1-.1,1.56,1.56,0,0,1,.21-.21.09.09,0,0,1,.1.1.1.1,0,0,1-.1.11c0,.07,0,.1-.11.1s0,.11-.1.11a.09.09,0,0,1-.1.1c0,.07,0,.1-.11.1S68.8,78.1,68.8,78Zm3.74,10.3c0,.07,0,.1-.1.1s0,.1-.11.1,0,.11-.1.11,0,.1-.1.1a.1.1,0,0,1-.11.11.09.09,0,0,1-.1.1c0,.07,0,.1-.11.1s0,.11-.1.11a.09.09,0,0,1-.1.1c0,.07,0,.1-.11.1s0,.11-.1.11,0,.1-.11.1,0,.11-.1.11a.09.09,0,0,1-.1.1c0,.07,0,.1-.11.1s0,.11-.1.11a.09.09,0,0,1-.1.1.1.1,0,0,1-.11.11.09.09,0,0,1-.1.1.1.1,0,0,1-.11.11,1990328647664.06,1990328647664.06,0,0,1-.2.2.1.1,0,0,1-.11.11.09.09,0,0,1-.1.1c0,.07,0,.1-.11.1s0,.11-.1.11a.09.09,0,0,1-.1.1.1.1,0,0,1-.11.11.09.09,0,0,1-.1.1c0,.07,0,.1-.11.1a.1.1,0,0,1-.1.11.1.1,0,0,1-.11-.11.1.1,0,0,1,.11-.1c0-.07,0-.1.1-.1a.1.1,0,0,1,.11-.11c0-.07,0-.1.1-.1a.1.1,0,0,1,.11-.11.09.09,0,0,1,.1-.1c0-.07,0-.1.1-.1a.1.1,0,0,1,.11-.11c0-.07,0-.1.1-.1s0-.1.11-.1,0-.11.1-.11,0-.1.1-.1a.1.1,0,0,1,.11-.11.09.09,0,0,1,.1-.1.1.1,0,0,1,.11-.11.09.09,0,0,1,.1-.1c0-.07,0-.1.1-.1a.1.1,0,0,1,.11-.11.09.09,0,0,1,.1-.1c0-.07,0-.11.1-.11a.1.1,0,0,1,.11-.1c0-.07,0-.1.1-.1a.1.1,0,0,1,.11-.11c0-.07,0-.1.1-.1s0-.1.1-.1a.1.1,0,0,1,.11-.11c0-.07,0-.1.1-.1a.1.1,0,0,1,.11-.11c0-.07,0-.1.1-.1a.09.09,0,0,1,.1-.1.1.1,0,0,1,.11-.11c0-.07,0-.1.1-.1s.11,0,.11.1A.1.1,0,0,1,72.54,88.33Zm-3-11.13c0-.07,0-.11.1-.11s0-.1.11-.1a.09.09,0,0,1,.1.1.1.1,0,0,1-.1.11c0,.07,0,.1-.11.1S69.53,77.27,69.53,77.2Zm.31-.21c0-.07.1-.21.31-.42a.23.23,0,0,1-.05.16.21.21,0,0,0,0,.16A.29.29,0,0,0,69.84,77Zm1.35-1.56a.1.1,0,0,1-.1.11.1.1,0,0,1-.11-.11c0-.07,0-.1.11-.1A.09.09,0,0,1,71.19,75.43Zm-.1-1.35c0-.07,0-.11,0-.11s0,0,0-.1l.1-.1c0,.14,0,.2-.1.2S71.15,74.08,71.09,74.08Zm-.11.21c0,.07,0,.1-.1.1s-.1,0-.1-.1,0-.11.1-.11a.09.09,0,0,1,.1-.1.1.1,0,0,1,.11.1A.1.1,0,0,1,71,74.29Zm-.1.15s0,0-.1,0-.11,0-.11,0,0,0,.11,0S70.88,74.41,70.88,74.44Zm0,1.41a.09.09,0,0,1-.1.1c0,.07,0,.1-.11.1s-.1,0-.1-.1,0-.1.1-.1a.1.1,0,0,1,.11-.11A.1.1,0,0,1,70.88,75.85Zm-.1-1.25c0,.07,0,.1-.11.1a.1.1,0,0,1-.1.11c0,.07,0,.1-.11.1s-.1,0-.1-.1,0-.11.1-.11,0-.1.11-.1,0-.11.1-.11A.1.1,0,0,1,70.78,74.6Zm-.21,1.45c0,.15,0,.21-.11.21s0,.11-.1.11,0-.11,0-.11,0,0,0-.1Zm-.11-1c0,.07,0,.1-.1.1a.09.09,0,0,1-.1.1c-.08,0-.11,0-.11-.1s0-.1.11-.1,0-.11.1-.11S70.46,75,70.46,75Zm-.2,1.35a.1.1,0,1,1,0,.2c-.08,0-.11,0-.11-.1S70.18,76.37,70.26,76.37Zm1.4-3a.21.21,0,0,0,0,.16.34.34,0,0,0-.21.1c0-.06.1-.21.31-.41A.21.21,0,0,1,71.66,73.4Zm0,1.3a.1.1,0,0,1-.1.11.1.1,0,0,1-.11-.11c0-.07,0-.1.11-.1A.09.09,0,0,1,71.71,74.7Zm2.6-5.09c-.07,0-.1,0-.1-.11s0-.1.1-.1.1,0,.1.1S74.38,69.61,74.31,69.61Zm.16,14,.26-.26c-.14.35-.28.52-.42.52S74.36,83.7,74.47,83.59Zm-.16-13.93s0,0-.1,0-.11,0-.11,0,0,0,.11,0S74.31,69.63,74.31,69.66ZM74,84.06c0-.07,0-.1.1-.1a.1.1,0,0,1,.11-.11.1.1,0,0,1,.1.11.09.09,0,0,1-.1.1.1.1,0,0,1-.11.11c0,.07,0,.1-.1.1s-.11,0-.11-.1A.1.1,0,0,1,74,84.06Zm-.11-12.69a.1.1,0,0,1,.11-.1.09.09,0,0,1,.1.1c0,.08,0,.11-.1.11A.1.1,0,0,1,73.89,71.37Zm.32-.15s0,0-.11,0-.1,0-.1,0,0,0,.1,0S74.21,71.18,74.21,71.22ZM74.1,70l-.1.11a3.29,3.29,0,0,0-.47.62,8.75,8.75,0,0,1-.57.83l-.63.94-.2.21v-.11l2-2.8Zm-.21,14.25c0,.14,0,.21-.1.21a.09.09,0,0,1-.1.1c0-.07,0-.1,0-.1s.05,0,.05-.11Zm-.2.41a.1.1,0,0,1-.11.11c0,.07,0,.1-.1.1a.1.1,0,0,1-.11.11c0,.07,0,.1-.1.1s0,.11-.1.11a.1.1,0,0,1-.11.1.09.09,0,0,1-.1-.1c0-.07,0-.11.1-.11s0-.1.11-.1,0-.11.1-.11,0-.1.1-.1a.1.1,0,0,1,.11-.11.09.09,0,0,1,.1-.1A.1.1,0,0,1,73.69,84.68Zm-.73.73a.1.1,0,0,1-.11.11c-.07,0-.1,0-.1-.11s0-.1.1-.1S73,85.34,73,85.41Zm-.21.32a.09.09,0,0,1-.1.1c0,.07,0,.1-.11.1s0,.11-.1.11,0,.1-.11.1a.09.09,0,0,1-.1-.1,1.56,1.56,0,0,1,.21-.21c0-.07,0-.1.1-.1a.1.1,0,0,1,.11-.11A.1.1,0,0,1,72.75,85.73ZM72.23,74c0,.08,0,.11-.1.11S72,74.05,72,74s0-.1.11-.1A.09.09,0,0,1,72.23,74ZM71.92,73c0,.07,0,.1-.11.1s0-.1,0-.1.06,0,.06-.11l.1-.1C72,73,72,73,71.92,73Zm0,1.14a.09.09,0,0,1,.1-.1.1.1,0,0,1,.11.1.1.1,0,0,1-.11.11c0,.07,0,.1-.1.1s-.11,0-.11-.1A.1.1,0,0,1,71.92,74.18Zm1.35,13.31-.62.63V88l.62-.62Zm.52-.52a.1.1,0,0,1-.1.11c0,.07,0,.1-.11.1s0,.11-.1.11a.1.1,0,0,1-.11.1.09.09,0,0,1-.1-.1c0-.07,0-.11.1-.11s0-.1.11-.1,0-.11.1-.11a.1.1,0,0,1,.11-.1c0-.07,0-.1.1-.1s.1,0,.1.1S73.86,87,73.79,87Zm.36-.46a.21.21,0,0,0-.05.15.31.31,0,0,0-.21.11c0-.07.11-.21.32-.42A.21.21,0,0,1,74.15,86.51Zm.47-.47c0,.07,0,.1-.1.1a.1.1,0,0,1-.11.11c0,.07,0,.1-.1.1s-.1,0-.1-.1,0-.11.1-.11a.09.09,0,0,1,.1-.1.1.1,0,0,1,.11-.11.09.09,0,0,1,.1-.1.1.1,0,0,1,.11.1A.1.1,0,0,1,74.62,86Zm.21-.31a.09.09,0,0,1-.1.1c0-.07,0-.1,0-.1s0,0,0-.11l.1-.1C74.93,85.66,74.9,85.73,74.83,85.73Zm.42-.42c0,.07,0,.1-.11.1s0,.11-.1.11a.1.1,0,0,1-.11-.11c0-.07,0-.1.11-.1s0-.1.1-.1a.1.1,0,0,1,.11-.11.1.1,0,0,1,.1.11A.09.09,0,0,1,75.25,85.31Zm.2-.31c0,.07,0,.1-.1.1s0-.1.05-.1,0,0,0-.11l.11-.1C75.56,84.93,75.52,85,75.45,85Zm.42-.42c0,.07,0,.1-.11.1s0,.11-.1.11-.1,0-.1-.11a.09.09,0,0,1,.1-.1c0-.07,0-.1.1-.1a.1.1,0,0,1,.11-.11c.07,0,.1,0,.1.11S75.94,84.58,75.87,84.58Zm.1-.21c-.06,0-.1,0-.1-.05s0,0,.1,0,.11,0,.11,0S76,84.37,76,84.37Zm.42-.41a.09.09,0,0,1-.1.1.1.1,0,0,1-.11.11.09.09,0,0,1-.1.1c-.07,0-.11,0-.11-.1a.1.1,0,0,1,.11-.11c0-.07,0-.1.1-.1a.1.1,0,0,1,.11-.11c0-.07,0-.1.1-.1s.1,0,.1.1S76.46,84,76.39,84Zm.1-.21c-.07,0-.1,0-.1,0s0,0,.1,0,.11,0,.11,0S76.56,83.75,76.49,83.75Zm.32-.31c0,.07,0,.1-.11.1a.1.1,0,0,1-.1.11.1.1,0,0,1-.11-.11c0-.07,0-.1.11-.1s0-.11.1-.11,0-.1.11-.1a.09.09,0,0,1,.1.1A.1.1,0,0,1,76.81,83.44Zm0-.37s0,.06-.11.06-.1,0-.1-.06,0,0,.1,0S76.81,83,76.81,83.07Zm-.11-.15a.1.1,0,0,1,.11-.11.1.1,0,0,1,.1.11.09.09,0,0,1-.1.1C76.74,83,76.7,83,76.7,82.92Zm0,.31a.09.09,0,0,1-.1.1c-.07,0-.11,0-.11-.1s0-.1.11-.1A.09.09,0,0,1,76.7,83.23Zm.21,0c-.07,0-.1,0-.1,0s0-.05.1-.05.1,0,.1.05S77,83.23,76.91,83.23Zm.1-.31a.1.1,0,0,1,.11-.11.09.09,0,0,1,.1-.1c0-.07,0-.1.11-.1a.1.1,0,0,1,0,.2.1.1,0,0,1-.11.11.09.09,0,0,1-.1.1.1.1,0,0,1-.11.11c-.07,0-.1,0-.1-.11S76.94,82.92,77,82.92Zm2.29-5.1-.1.11-4.27,5.3c0,.07,0,.1-.1.1s-.1,0-.1-.1,0-.1.1-.1.1,0,.1.1V83l3.75-4.78.73-.73A.4.4,0,0,1,79.3,77.82Zm-.41-13.67s0-.05.1-.05.1,0,.1.05,0,0-.1,0S78.89,64.18,78.89,64.15Zm3.69-6.55a4.29,4.29,0,0,0,.57-1.93.92.92,0,0,0-.26.52.92.92,0,0,1-.26.52v-.2l1-3.13.1.32v-.42a.77.77,0,0,0,.19-.43h-.08c-.07.07-.11,0-.11-.1s0-.21.11-.21l.1.12v-.53l.1.31v-.52a2.36,2.36,0,0,0,.32-.88,6.56,6.56,0,0,0,.1-.79,15,15,0,0,1-.42,3,40.35,40.35,0,0,1-1,3.9,24.65,24.65,0,0,1-1.45,3.64,8,8,0,0,1-1.66,2.39v-.73L79.09,64a3.47,3.47,0,0,1,.32-1.35,10.91,10.91,0,0,1,.78-1.51c.31-.52.62-1,.93-1.51a14.3,14.3,0,0,0,.78-1.35,1.1,1.1,0,0,1-.15.57.91.91,0,0,0-.16.47A19.68,19.68,0,0,0,82.58,57.6Zm-.68.52s0-.06.11-.06.1,0,.1.06,0,.05-.1.05S81.9,58.15,81.9,58.12Zm.21-.16c0-.21,0-.35.1-.41A.6.6,0,0,1,82.11,58Zm.21-.52a.61.61,0,0,1,.1-.42A.67.67,0,0,1,82.32,57.44Zm.1-.57s0,0,.11,0,.1,0,.1,0,0,.05-.1.05S82.42,56.9,82.42,56.87Zm1.77-5.46c-.07.07-.11,0-.11-.26s0-.33.11-.26S84.4,51.2,84.19,51.41Zm0-1.2c0-.45,0-.64.1-.57a1.28,1.28,0,0,1,.11.57.69.69,0,0,1-.11.47C84.22,50.82,84.19,50.67,84.19,50.21ZM80.55,69.09c0-.07,0-.11.1-.11a.1.1,0,0,1,.11.11c0,.07,0,.1-.11.1s0,.11-.1.11a.1.1,0,0,1-.11-.11C80.44,69.12,80.48,69.09,80.55,69.09Zm-.21-4.68c0-.42.1-.66.31-.73a.72.72,0,0,1-.15.42A.56.56,0,0,0,80.34,64.41Zm.31-.94c0-.07,0-.1.11-.1a.09.09,0,0,1,.1.1.1.1,0,0,1-.1.11A.1.1,0,0,1,80.65,63.47Zm.21,5.2a.1.1,0,0,1,.11.11c0,.07,0,.1-.11.1s-.1,0-.1-.1S80.79,68.67,80.86,68.67Zm-.52-4.16c0,.07,0,.11-.1.11a.1.1,0,0,1-.11-.11c0-.07,0-.1.11-.1S80.34,64.44,80.34,64.51Zm-.83,6c.07,0,.1,0,.1.11s0,.1-.1.1a.09.09,0,0,1-.1.1.1.1,0,0,1-.11.11c-.07,0-.1,0-.1-.11a.09.09,0,0,1,.1-.1c0-.07,0-.1.11-.1S79.44,70.54,79.51,70.54Zm.21,6.76a.1.1,0,0,1-.11.11c0,.07,0,.1-.1.1s-.1,0-.1-.1,0-.11.1-.11a.09.09,0,0,1,.1-.1.1.1,0,0,1,.11-.11.1.1,0,0,1,.1.11A.09.09,0,0,1,79.72,77.3Zm.1-7a.09.09,0,0,1-.1.1c0,.07,0,.1-.11.1s-.1,0-.1-.1,0-.1.1-.1a.1.1,0,0,1,.11-.11c0-.07,0-.1.1-.1s.11,0,.11.1A.1.1,0,0,1,79.82,70.34Zm.31-.42c0,.07,0,.1-.1.1a.1.1,0,0,1-.1.11.1.1,0,0,1-.11-.11c0-.06,0-.1.11-.1s0-.1.1-.1,0-.11.1-.11a.1.1,0,0,1,.11.11A.1.1,0,0,1,80.13,69.92Zm.11-.21c-.07,0-.11,0-.11,0s0,0,.11,0,.1,0,.1,0S80.31,69.71,80.24,69.71Zm.1-.1c-.07,0-.1,0-.1-.11s0-.1.1-.1a.09.09,0,0,1,.1-.1c.07,0,.11,0,.11.1s0,.1-.11.1S80.41,69.61,80.34,69.61Zm.21.83a.1.1,0,0,1-.11-.1.1.1,0,0,1,.11-.11c.07,0,.1,0,.1.11A.09.09,0,0,1,80.55,70.44Zm.21-.31a.1.1,0,0,1-.11-.11.1.1,0,0,1,.11-.1.09.09,0,0,1,.1.1A.1.1,0,0,1,80.76,70.13Zm.1-.21a.09.09,0,0,1-.1-.1c0-.07,0-.11.1-.11a.1.1,0,0,1,.11.11A.1.1,0,0,1,80.86,69.92Zm.21-.31a.09.09,0,0,1-.1.1c-.07,0-.11,0-.11-.1A.1.1,0,0,1,81,69.5c0-.07,0-.1.1-.1s.1,0,.1.1S81.14,69.61,81.07,69.61Zm.1-.31c-.07,0-.1,0-.1-.06s0,0,.1,0,.11,0,.11,0S81.24,69.3,81.17,69.3Zm.11-.11c-.07,0-.11,0-.11-.1a.1.1,0,0,1,.11-.11c.07,0,.1,0,.1.11S81.35,69.19,81.28,69.19Zm.1-.21c-.07,0-.1,0-.1-.1s0-.1.1-.1.1,0,.1.1S81.45,69,81.38,69Zm.1-.2c-.06,0-.1,0-.1-.06s0,0,.1,0,.11,0,.11,0S81.55,68.78,81.48,68.78Zm.11-.21c-.07,0-.11,0-.11,0s0-.06.11-.06.1,0,.1.06S81.66,68.57,81.59,68.57Zm.1-.11c-.07,0-.1,0-.1-.1s0-.1.1-.1.11,0,.11.1S81.76,68.46,81.69,68.46Zm2-2.91a.74.74,0,0,0-.16.31c0-.41.11-.65.32-.72A.73.73,0,0,1,83.72,65.55ZM84,65c-.07,0-.1,0-.1,0s0,0,.1,0,.1,0,.1,0S84.05,65,84,65Zm.1-.1a.1.1,0,0,1-.1-.11.09.09,0,0,1,.1-.1.1.1,0,0,1,.11.1A.1.1,0,0,1,84.08,64.93ZM84.71,56a21.6,21.6,0,0,1-3.12,6.29.8.8,0,0,1,0-.31.41.41,0,0,0,0-.21l.63-1.25.62-1.25a43.78,43.78,0,0,0,2-5,16.82,16.82,0,0,0,.88-5.36,6.93,6.93,0,0,0-.15-1.5A5.92,5.92,0,0,1,85.54,46a4.62,4.62,0,0,1,.37,1.46c0,.48,0,1,0,1.56A22.65,22.65,0,0,1,84.71,56Zm.41-11.18a.7.7,0,0,1,.21.52A.7.7,0,0,1,85.12,44.86Zm.32.73c.07,0,.1,0,.1,0s0,0-.1,0-.11,0-.11,0S85.37,45.59,85.44,45.59ZM89.07,66.7c-.06,0-.1,0-.1-.06s0,0,.1,0,.11,0,.11,0S89.14,66.7,89.07,66.7Zm.11-.21c-.07,0-.11,0-.11-.06s0-.05.11-.05.1,0,.1.05S89.25,66.49,89.18,66.49Zm2.65-5.1q-.57,1.15-.78,1.56a6.3,6.3,0,0,0-.47.89c-.17.38-.33.74-.46,1.09a9.43,9.43,0,0,0-.73,1.25l-.11.1v-.1l.42-.84c.21-.41.42-.84.62-1.3s.42-.88.63-1.3.35-.69.41-.83.23-.5.47-1.09.4-1,.47-1.09l.11-.21A4.48,4.48,0,0,1,91.83,61.39Zm-2,2.45s0,0-.1,0-.11,0-.11,0,0-.06.11-.06S89.8,63.8,89.8,63.84Zm-.1-.26c0-.07,0-.11.1-.11a.1.1,0,0,1,.11.11c0,.07,0,.1-.11.1S89.7,63.65,89.7,63.58Zm0,.46s0,.06-.11.06-.1,0-.1-.06,0-.05.1-.05S89.7,64,89.7,64Zm-.11.21s0,0-.1,0-.1,0-.1,0,0,0,.1,0S89.59,64.22,89.59,64.25Zm2.61-6.08c0,.07,0,.1-.11.1s-.1,0-.1-.1,0-.11.1-.11A.1.1,0,0,1,92.2,58.17Zm-.11-.26s0,0,.11,0,.1,0,.1,0,0,.05-.1.05S92.09,57.94,92.09,57.91Zm.21-.26a.09.09,0,0,1-.1-.1c0-.07,0-.11.1-.11a.1.1,0,0,1,.11.11A.1.1,0,0,1,92.3,57.65Zm.11-.31a.1.1,0,0,1-.11-.11c0-.06,0-.1.11-.1a.09.09,0,0,1,.1.1A.1.1,0,0,1,92.41,57.34Zm0-.42c0-.07,0-.1.1-.1s.1,0,.1.1,0,.1-.1.1S92.41,57,92.41,56.92Zm.1,2.5a1.67,1.67,0,0,1,.21-.73A1.67,1.67,0,0,1,92.51,59.42Zm.1-2.71c-.07.07-.1,0-.1-.1s0-.21.1-.21C92.82,56.61,92.82,56.71,92.61,56.71Zm.21-.83c-.07.07-.1,0-.1-.1s0-.21.1-.21C93,55.78,93,55.88,92.82,55.88Zm.1-.42a3.07,3.07,0,0,1,.06-.67,4.05,4.05,0,0,1,.15-.57v.21A3.35,3.35,0,0,1,92.92,55.46Zm-.2.84c-.07.07-.11,0-.11-.11s0-.2.11-.2C92.92,56.19,92.92,56.3,92.72,56.3Zm.1,2.29a3.35,3.35,0,0,1,.42-1.46A2.29,2.29,0,0,1,92.82,58.59ZM93.34,57c-.07,0-.1,0-.1-.1s0-.1.1-.1.1,0,.1.1S93.41,57,93.34,57Zm.21-11.12c-.07.07-.11,0-.11-.11s0-.2.11-.2C93.76,45.79,93.76,45.9,93.55,45.9Zm.1.83c-.07.07-.1,0-.1-.26s0-.33.1-.26S93.86,46.52,93.65,46.73Zm-.15,3.8A23.8,23.8,0,0,0,93.76,47v2q0,1.24-.06,2.55a9.24,9.24,0,0,1-.46,2.54v-.2A21.65,21.65,0,0,1,93.5,50.53Zm-.06,6.18c-.07,0-.1,0-.1-.1s0-.1.1-.1.11,0,.11.1S93.51,56.71,93.44,56.71Zm.11-.41a.1.1,0,0,1-.11-.11.1.1,0,0,1,.11-.1.09.09,0,0,1,.1.1C93.65,56.26,93.62,56.3,93.55,56.3Zm.1-.31c-.07,0-.1,0-.1-.11s0-.1.1-.1.11,0,.11.1A.1.1,0,0,1,93.65,56Zm.11-.42a.1.1,0,0,1-.11-.11c0-.06,0-.1.11-.1a.09.09,0,0,1,.1.1A.1.1,0,0,1,93.76,55.57Zm.1-.42c-.07,0-.1,0-.1-.1s0-.1.1-.1.1,0,.1.1S93.93,55.15,93.86,55.15Zm.1-.52c-.07,0-.1,0-.1-.1s0-.1.1-.1.11,0,.11.1S94,54.63,94,54.63ZM78.57,30.72l1,.31.89.21a3.26,3.26,0,0,1,.67.2h.11a.31.31,0,0,0,.2.11,27.11,27.11,0,0,1,5.26,2.6A19.62,19.62,0,0,1,91,37.73a16.51,16.51,0,0,1,2.81,4.58,15.22,15.22,0,0,1,1,5.77,15.26,15.26,0,0,0-5.26-10.81,23.59,23.59,0,0,0-2.87-2.15.09.09,0,0,1-.09.07c-.07,0-.1,0-.1-.11a.14.14,0,0,1,0-.07c-.61-.39-1.23-.77-1.89-1.12-1.88-1-3.85-2-5.93-3.07l-.21-.1Zm-.41,10.6a11.2,11.2,0,0,1,4.62,3,7.69,7.69,0,0,1,1.62,5.2,10.47,10.47,0,0,0-1-3.9,7.06,7.06,0,0,0-2.13-2.5,12.4,12.4,0,0,0-3.12-1.61c-1.18-.41-2.5-.83-4-1.25a6.39,6.39,0,0,1,2.08.37Zm-3.54-.62c0,.07,0,.1-.1.1s-.11,0-.11-.1ZM70.57,29.47l.88.05,1.4.11c.49,0,1.11.12,1.88.25V30a13.39,13.39,0,0,1-2.34-.21c-.8-.14-1.58-.24-2.34-.31ZM74,40.18c0,.07,0,.1-.11.1s-.1,0-.1-.1ZM69.32,29.47c.06,0,.06,0,0,.05a.64.64,0,0,1-.31.05.42.42,0,0,1-.32-.1ZM71.09,40c1,.14,2,.35,3.12.62H74a16,16,0,0,1-3.07-.31c-1.08-.2-2.1-.38-3.07-.52A22.86,22.86,0,0,1,71.09,40ZM61.31,29.78c0,.07,0,.1-.1.1s-.11,0-.11-.1ZM44.37,55.44l1.29-1.29,1.64.52,1.38.17.78-.34.26-.69-.95-.09-.35-.17a29.23,29.23,0,0,0,1.78-5h0c0-.22.1-.43.14-.64v0h0a8.26,8.26,0,0,0,.15-1.15s0-.07,0-.1h0a3.35,3.35,0,0,0,0-.55s0,0,0,0v0h0v-.22h0a1.62,1.62,0,0,1,0-.23h0a.22.22,0,0,0,0-.08h0c0-.11,0-.24,0-.38h0v0c0-.34-.05-.74-.09-1.19v-.09c-.06-.66-.13-1.42-.22-2.23h0c-.13-1.11-.29-2.3-.5-3.4h0v0h0c-.11-.54-.22-1.06-.34-1.54h0c-.06-.25-.13-.48-.2-.7h0a3.77,3.77,0,0,0-1-1.93c.17-.35.52-1.3.52-1.3l.34-.69,1,1.3,2.42-2.59.51-.52s1.64-1.12.26,1.38l-.69.86.52,1,.43-.08L54,31.89l.87.43-.52,2.07-.35.69s2.33-.09.69,2.33a.17.17,0,0,1,0,.1l0,0-.06.11,0,0c-.09.14-.22.34-.37.6h0v0h0c-.07.13-.15.26-.23.42h0a8.64,8.64,0,0,0-.7,1.91h0l0,.06a12.75,12.75,0,0,0-.27,1.5h0c0,.08,0,.17,0,.25h0a14.69,14.69,0,0,0-.08,1.82h0v.1c0,.7.06,1.47.15,2.32v0a34.19,34.19,0,0,0,.64,3.63c.08,0,.69,6.56.69,6.56s.6,4.23-3.8,4.32l-6,.26-.52-.7-.34-1.46-.17-1.47.17-1.12Zm-2.59-4.22c2.59.08,2,2.33,1.64,2.5-.69.09-1.21,3-1.3,3.19-.77,1,.61,5.09.61,5.09l-.35.35a14.68,14.68,0,0,0-2.59.26c-2.5-.44-2.24-2.59-2.41-2.33-1-3.46,2.41-8.11,2.41-8.29C39.71,50.61,41.86,51.3,41.78,51.22Zm-1.3-4.32-2,2.33-1-.6-.69-.52L34.62,48l-1.21-.08-1,.08-1.2.26H28.32l-.95.26-1,.35-.69.34-1.09.69a.2.2,0,0,0,0,.16L23,51.21l-.24.09s-1.21-.17-1.56-.6c-.86-.52.26-1.73.26-1.73l.43-.17,1.73-.6.51-.26.44-1.38,4.74-2.76s-.08,1.46-.26,1.38c.61,2.93,4,2.07,4,2.07l.44-1a10.35,10.35,0,0,0-1.73-.18C29.18,42.42,33.06,44,33.06,44l.69-.87a4.27,4.27,0,0,0-1.29-.68,18,18,0,0,0,6.73-5.53l.6.53c-1.63,4.22.35,5.86.26,5.86C42.64,45.78,40.48,46.9,40.48,46.9ZM20.9,33.7c.08.26,2.76-4.06,4.74-4.4.26-.09,2.25-.69,2.25-.69l.86-.43s4.92-.09,7.16,2.07a21.85,21.85,0,0,1,2.5,1.46L40.05,33l.26,1.73a7.51,7.51,0,0,0-1.9-1,24,24,0,0,1-2.67-1l-1.29-.69-1.64-.26.25.6-.6.44,1.47.69-2.16,1.89L30,36.63l-1.21,1.3L27.2,39.22l-1,1.21-.95.86-.86.87-.52.6-.43-.52L23,42.07l-1.38-1.21-2.07.35S18.39,36.12,20.9,33.7Zm-2.85,9.92,3.28-.52,2.07,1.73s-.43.78-.69.69c-.17-1.64-4.66-.86-4.66-.86ZM20.81,54.5H19.6l-1.55-.26-.95-.52-.69.17.52,1.29,1.38.87c2.33-.95,2.59,1.38,2.33,1.72-.26,1.56-2.25,1.82-2.07,1.64C15,60,13,55.88,13,55.79a7.86,7.86,0,0,1,5-9.06l2.59.6.18.87s-.44,1.12-.7.77a2,2,0,0,0-.51,3c.25.69,3.45.26,3.36.35C23,53.11,20.81,54.5,20.81,54.5ZM28.4,73.22c-1.2-.17-1-.86-1-.86l.6-.78a7.21,7.21,0,0,0,1.21-1.81A6.83,6.83,0,0,1,30,68.39l.86-1,.52-.95-.43-.26-.52.52-.78.61-1,1.46L28,70l-1,1.55-1.13,1-1.38.34-1,.35H21l-1-.17a7.63,7.63,0,0,0,.86-1c.26-.43.43-.69.6-1L22,69.77l.26-.61.77-.51.61-.78.51-.86.52-.52.61-.78-.17-1.38-.44.35-.86.86-.52.95-.77,1-.69,1-.61.77-.51,1-1,1.21-.69,1.55h-.77v-3l.43-1.21.34-1.56.78-1.64.43-1.29.52-1.38.52-2.25.86-.51,0-.62.24-.76-.09-1.13.44-.95.17-1-.35-.86.52-.52.52-2.24-.08-.41,1.3-.83h0c3.2-2,10.85-1.36,11-1.45,2.94.69,2.59,2.07,2.33,2-.78.51-1.9,6.12-2.16,6.47-.69,4.14,2.25,5.69,2.59,5.61,1.81-.61,1.81,1,1.56.86,1.38,6.64-4.66,12.51-4.66,12.17C34.87,75.29,29,73.39,28.4,73.22ZM52.06,92.28a.1.1,0,0,1-.11-.11c0-.07,0-.1.11-.1a.09.09,0,0,1,.1.1A.1.1,0,0,1,52.06,92.28Zm.15-.11s-.05,0-.05-.1h.1C52.26,92.14,52.25,92.17,52.21,92.17Zm.26-.21c0,.07,0,.11-.1.11a.1.1,0,0,1-.11-.11.1.1,0,0,1,.11-.1c0-.07,0-.1.1-.1s.11,0,.11.1S52.54,92,52.47,92Zm3.85-2.6a.1.1,0,0,1-.1.11.1.1,0,0,1-.11-.11.1.1,0,0,1,.11-.1c0-.07,0-.1.1-.1s.1,0,.1.1S56.39,89.36,56.32,89.36Zm.62-.51a1326885765109.41,1326885765109.41,0,0,1-.2.2c-.07,0-.11,0-.11-.1s0-.1.11-.1,0-.11.1-.11,0-.1.1-.1.11,0,.11.1A.1.1,0,0,1,56.94,88.85Zm.63-.52a.89.89,0,0,1-.52.31,1.62,1.62,0,0,1,.31-.42,1.18,1.18,0,0,0,.31-.21.34.34,0,0,1,.21-.1C57.88,88,57.78,88.12,57.57,88.33ZM60.06,86c0,.07,0,.1-.1.1a.1.1,0,0,1-.1.11c0,.07,0,.1-.11.1s0,.1-.1.1a.1.1,0,0,1-.11.11.1.1,0,0,1-.1-.11.09.09,0,0,1,.1-.1c0-.07,0-.1.11-.1s0-.11.1-.11,0-.1.11-.1,0-.11.1-.11a.09.09,0,0,1,.1-.1.1.1,0,0,1,.11.1A.1.1,0,0,1,60.06,86Zm.11-.21c1.31-1.32,2.6-2.72,3.85-4.21.21-.26.43-.49.65-.73A96.25,96.25,0,0,1,53.62,91l-.94.73h-.1l.2-.32h-.1L50.81,92.9l-1.66,1.25a14.16,14.16,0,0,0-1.36,1.14,11.12,11.12,0,0,0-1.29,1.28A88.2,88.2,0,0,1,35,90.78c.27-.32.46-1,.27-2.29.09.09.09-2.24,1-3.45,0-.08,2-3.71.69-7.25-.09.18,5.41-3.44,4.92-13.67a2.35,2.35,0,0,0,2.5-1.43c-.09.26,7.07-.26,7.07-.26s5.61.87,4.06-8.11c-.07.21-.8-6.06-1.09-8.61l.45-.33A30.43,30.43,0,0,1,59,42.83a25.18,25.18,0,0,1,4.42-1.77,17.56,17.56,0,0,1,5-.67,36.87,36.87,0,0,1,4.79.36,22.1,22.1,0,0,1,5.09,1.3,10.9,10.9,0,0,1,4,2.65,6.33,6.33,0,0,1,1.62,4.53,18.19,18.19,0,0,1-.73,4.94,25.6,25.6,0,0,1-.89,2.56l.06,0a.1.1,0,0,1,.1.11.09.09,0,0,1-.1.1c-.07,0-.1,0-.1-.09-.29.68-.6,1.34-.94,2l-4.06,7.7c-.07.07-.4.57-1,1.51l-1.4,2.23c0,.07-.1.21-.31.42a5.83,5.83,0,0,1,1.09-2.13,3.53,3.53,0,0,0,.78-2.24V66h-.21a92.68,92.68,0,0,1-9.85,13.12c.54-.54,1.08-1.08,1.64-1.58v.1l-.31.42a2,2,0,0,1-.21.31,1.38,1.38,0,0,0-.21.31,6.21,6.21,0,0,0-.52.63,6,6,0,0,1-.42.52l-6,6Zm4.89,9.77v.11H65ZM63.81,83.65a.1.1,0,0,1-.11.1c0,.07,0,.1-.1.1a.1.1,0,0,1-.11.11c0,.07,0,.1-.1.1s-.1,0-.1-.1,0-.11.1-.11,0-.1.1-.1,0-.1.11-.1,0-.11.1-.11A.1.1,0,0,1,63.81,83.65Zm3.12,23.6-4.79-1h.42a3.57,3.57,0,0,0,.88.21,7.12,7.12,0,0,0,.89.1c.2.07.71.19,1.5.37s1.31.29,1.51.36Zm.62.21a.09.09,0,0,1-.1-.1c0-.07,0-.11.1-.11a.1.1,0,0,1,.11.11A.1.1,0,0,1,67.55,107.46Zm12.43.42H75.35c-1.39,0-2.77-.06-4.16-.16a14.94,14.94,0,0,1-3.85-.78H68a67.2,67.2,0,0,0,6.91.67q3.38.17,7,.16C81.07,107.84,80.43,107.88,80,107.88Zm3.58-.21c.07,0,0,0-.15,0a3.45,3.45,0,0,1-.57,0,4,4,0,0,1-.68,0c-.17,0-.22,0-.15,0ZM93.65,105a56,56,0,0,1-8.21,1q-4.06.21-8.22.21c2.77,0,5.55-.1,8.32-.31a69.85,69.85,0,0,0,8.32-1.14h.21A.63.63,0,0,1,93.65,105Zm.73-3.12c-.07,0-.1,0-.1-.1s0-.11.1-.11.1,0,.1.11S94.45,101.84,94.38,101.84Zm.47-.1s0,0,0-.11h.1C94.9,101.71,94.88,101.74,94.85,101.74Zm.47-.11c-.07,0-.11,0-.11-.1h.21C95.42,101.6,95.39,101.63,95.32,101.63Zm.46-.1c-.1,0-.15,0-.15-.1h.31C95.94,101.5,95.89,101.53,95.78,101.53Zm.57-.1a.1.1,0,0,1-.1-.11h.21A.1.1,0,0,1,96.35,101.43Zm.52-.11c-.07,0-.1,0-.1-.1H97C97,101.29,96.94,101.32,96.87,101.32Zm.52-.1c-.07,0-.1,0-.1-.1h.21C97.5,101.19,97.46,101.22,97.39,101.22Zm.42-.1c-.07,0-.1,0-.1-.11h.21A.1.1,0,0,1,97.81,101.12Zm.31-.11c-.07,0-.1,0-.1-.1h.21C98.23,101,98.19,101,98.12,101Zm.42-.1c-.07,0-.1,0-.1-.11h.2C98.64,100.87,98.61,100.91,98.54,100.91ZM79.41,70.65c0,.07,0,.1.1.1A.09.09,0,0,0,79.41,70.65Zm.1,6.65c0,.07,0,.11.1.11S79.58,77.3,79.51,77.3ZM65.68,94.77c0-.07,0-.1-.11-.1S65.61,94.77,65.68,94.77Zm21.21,12.38c.56,0,1.13,0,1.72-.06a5.56,5.56,0,0,0,1.71-.36h-.41a10.19,10.19,0,0,1-1.51.26C87.6,107.09,87.1,107.15,86.89,107.15ZM99.14,144.8a3.15,3.15,0,0,0-2.4,1,3.66,3.66,0,0,0,0,4.9,3.23,3.23,0,0,0,4.78,0,3.5,3.5,0,0,0,1-2.46,3.42,3.42,0,0,0-1-2.43A3.14,3.14,0,0,0,99.14,144.8Zm1.36,4.91a1.7,1.7,0,0,1-1.36.64,1.72,1.72,0,0,1-1.37-.64,2.24,2.24,0,0,1,0-2.87,1.74,1.74,0,0,1,1.37-.62,1.71,1.71,0,0,1,1.36.63,2.11,2.11,0,0,1,.51,1.43A2.14,2.14,0,0,1,100.5,149.71Zm6.28-12.12c0-1.29,0-3.24-.13-5.84s-.13-4.54-.13-5.83q0-3.12.14-8.28c3.32.14,5.12.2,5.41.2s.27-.14.27-.44,0-.39,0-.7,0-.54,0-.68c0-1.06,0-1.61,0-1.66s-.16-.27-.39-.28c0,0-.69.07-2,.16-2.31.17-4,.25-5,.25s-3.52-.11-7.13-.35l-.18,0a.27.27,0,0,0-.26.22,14.92,14.92,0,0,0-.21,1.64c0,.09-.09.39-.2.88a4.37,4.37,0,0,0-.14.88c0,.12.06.17.18.17,1.23,0,3.15-.09,5.78-.27q.17,5.27.16,8.28c0,1.29-.05,3.23-.14,5.81s-.15,4.51-.15,5.79c0,.29.13.43.39.43s.46,0,.83,0a7.25,7.25,0,0,1,1.7,0c.38,0,.66,0,.84,0S106.78,137.83,106.78,137.59ZM77.12,83c0-.07,0-.1-.11-.1S77.05,83,77.12,83ZM107.87,142l-.38,0a3.13,3.13,0,0,1-.39,0,2.93,2.93,0,0,1-.37,0l-.37,0c-.1,0-.15,0-.15.14,0,.49,0,1.23.08,2.23s.07,1.73.07,2.23,0,1.36,0,2.45,0,1.91,0,2.45c0,.1,0,.16.12.16h1.32c.07,0,.11-.06.11-.16,0-.54,0-1.36,0-2.45s0-1.91,0-2.45c0-1.23.05-2.69.16-4.4v-.09C108,142,108,142,107.87,142Zm5.9,3.16-.39,0a1.87,1.87,0,0,1-.77,0l-.39,0c-.09,0-.14,0-.14.12,0,.36,0,.89.08,1.61s.08,1.25.08,1.61,0,.8,0,1.43,0,1.12,0,1.43,0,.28.15.28h1.34c.08,0,.12,0,.12-.14,0-.33,0-.83,0-1.5s0-1.17,0-1.5,0-.9.07-1.61.06-1.25.06-1.6C113.89,145.16,113.85,145.12,113.77,145.12ZM79.61,77.2c0,.07,0,.1.11.1A.1.1,0,0,0,79.61,77.2Zm6.14,30.16h-.52c0,.06.1.1.31.1S85.82,107.42,85.75,107.36Zm.73,0c.21,0,.27,0,.21-.11h-.53C86.16,107.32,86.27,107.36,86.48,107.36ZM76.6,83.44c0,.07,0,.1.1.1A.09.09,0,0,0,76.6,83.44Zm96.76,13.73a2.55,2.55,0,0,0-.75.65,1.23,1.23,0,0,0-.28.79v10.91a.46.46,0,0,0,.32.47,2,2,0,0,0,.73.12,2.31,2.31,0,0,0,.37,0,1.07,1.07,0,0,0,.33-.08.76.76,0,0,0,.24-.18.45.45,0,0,0,.09-.3V99.21a.69.69,0,0,1,.14-.35,1.36,1.36,0,0,1,.58-.45,4.4,4.4,0,0,1,1.22-.38,10.67,10.67,0,0,1,2.1-.17,4.12,4.12,0,0,1,1.05.1,2.86,2.86,0,0,1,.61.21l.41.21a.92.92,0,0,0,.77,0,.63.63,0,0,0,.21-.18,1.07,1.07,0,0,0,.1-.22,2,2,0,0,0,0-.23,1.05,1.05,0,0,0-.17-.58,1.61,1.61,0,0,0-.53-.5,3.53,3.53,0,0,0-.93-.37,6.74,6.74,0,0,0-1.32-.17,14,14,0,0,0-1.44,0,11.33,11.33,0,0,0-1.44.17,10.51,10.51,0,0,0-1.34.32A6.15,6.15,0,0,0,173.36,97.17Zm4.71-15.75V79.49c.08-.74.16-.84,1-.92.87.08,1,.18,1,.92v.71c0,.8-1.23,3.75-3.79,8.32l-.07.11V90h5.66V88.26h-3.42c2.24-3.94,3.39-6.52,3.42-8.06v-.71a2.59,2.59,0,0,0-.75-2,3,3,0,0,0-2.08-.68,3,3,0,0,0-2.09.68,2.62,2.62,0,0,0-.74,2v1.93Zm0-18.4V61.08c.08-.74.16-.83,1-.91.87.08,1,.17,1,.91v.72c0,.79-1.23,3.75-3.79,8.31l-.07.12v1.36h5.66V69.85h-3.42c2.24-3.94,3.39-6.51,3.42-8v-.72a2.6,2.6,0,0,0-.75-2,3,3,0,0,0-2.08-.67,3,3,0,0,0-2.09.67,2.63,2.63,0,0,0-.74,2V63Zm8,27a3,3,0,0,0,2.08-.67,2.61,2.61,0,0,0,.74-2V79.49a2.62,2.62,0,0,0-.74-2,3.58,3.58,0,0,0-4.17,0,2.62,2.62,0,0,0-.74,2v7.85a2.61,2.61,0,0,0,.74,2A3,3,0,0,0,186.08,90Zm-1-10.5c.07-.74.16-.84,1-.92.87.08,1,.18,1,.92v7.85c-.07.74-.16.83-1,.91-.88-.08-1-.17-1-.91ZM173.56,25.8a.33.33,0,0,0-.06.08.24.24,0,0,1-.06.09l.05,0a11,11,0,0,0,.87-.94l.8-1,.07.08.07.07h0s0,0,0,0a.37.37,0,0,1,0,.16.41.41,0,0,0,0,.25c0,.09-.07.14-.24.14,0,0,0,0,0,.07a.25.25,0,0,1,0,.12l.07.05-.24.19a1,1,0,0,0-.21.2,2.11,2.11,0,0,0-.21.31c-.07.11-.14.22-.22.33l-.22.25-.23.25a3.07,3.07,0,0,1-.26.25,3.07,3.07,0,0,0-.26.25l-.18.13-.15.13a.43.43,0,0,0-.12.11l-.1.11c-.11.07-.16.12-.16.14s0,.08.14.16l.32-.16a.38.38,0,0,0,.2-.27l.07-.07.21-.19a.46.46,0,0,0,.17-.2,1.34,1.34,0,0,1,.2-.21c.07-.06.15-.12.23-.2a1.93,1.93,0,0,1,.27-.3,1.63,1.63,0,0,0,.27-.31.76.76,0,0,0,.09-.16,1.42,1.42,0,0,1,.08-.18l.23-.3a3.7,3.7,0,0,1,.24-.29.9.9,0,0,0,.16-.19.41.41,0,0,1,.2-.15.35.35,0,0,0,.19-.19,2,2,0,0,1,.14-.25v-.09a.31.31,0,0,0,0-.09.38.38,0,0,1,0-.1l-.12-.1-.12-.09-.14-.13-.19.17c0,.06-.1.12-.15.18a.8.8,0,0,0-.13.21c-.1.16-.2.32-.33.5l-.51.57Zm16.3,116.73a1,1,0,0,0-.66.23.77.77,0,0,0-.3.63q0,.84,1,.84c.62,0,.94-.28.94-.84a.79.79,0,0,0-.28-.62A1,1,0,0,0,189.86,142.53Zm17.61-13.75c0-.14.1-.28.29-.43a7.56,7.56,0,0,0,2.39-2.89,10.46,10.46,0,0,0,.61-3.94,7.09,7.09,0,0,0-2.26-5.62,8,8,0,0,0-5.44-1.79c-.86,0-2.17,0-3.92.07s-3,.08-3.93.08c-.44,0-.65.11-.64.33v.28q.36,6.06.36,11.4c0,1.25-.06,3.13-.16,5.64s-.17,4.39-.17,5.65a.34.34,0,0,0,.39.39c.17,0,.44,0,.79,0a7.24,7.24,0,0,1,.79-.05,8.39,8.39,0,0,1,.95.07,8.52,8.52,0,0,0,.92.08q.3,0,.3-.36c0-.78,0-1.95-.1-3.53s-.09-2.75-.09-3.54c0-.54.1-.83.32-.86a22.51,22.51,0,0,1,2.5-.07c.79,0,1.26,0,1.39,0a1.25,1.25,0,0,1,1.11.74c1.53,4,2.46,6.36,2.78,7.12.13.29.3.43.54.43s.53,0,1,0,.74-.05,1-.05.48,0,.88.05.69,0,.89,0,.24,0,.24-.14a48.44,48.44,0,0,0-1.82-4.53Q207.47,129,207.47,128.78Zm-4.75-2.37c-1.12,0-2.16,0-3.13-.09l-.9-.08-.2-.07v-3.23c0-2.65,0-4.28.11-4.89,0-.3.87-.44,2.52-.44a8.3,8.3,0,0,1,4.23.76c1.06.69,1.59,2,1.59,4.09Q206.94,126.41,202.72,126.41ZM173.25,16.57l.17,0,.19,0C173.49,16.49,173.38,16.46,173.25,16.57ZM65.16,29.05a.41.41,0,0,0,.21-.05c.07,0,.07-.05,0-.05H65C65,29,65,29.05,65.16,29.05ZM168,14.26l.11.16a1.06,1.06,0,0,0,.35.35l.26.18.28.16a1.12,1.12,0,0,0,.25.11l.24.11a1.25,1.25,0,0,0,.4.2l.33.16a1.61,1.61,0,0,0,.33.12l.12,0a.23.23,0,0,1,.12.06c.08.08.19.06.33,0,0,.11,0,.17,0,.18h.17c.08,0,.13,0,.16.05a.5.5,0,0,0,.14.1l.11.05a.28.28,0,0,0,.13,0,.81.81,0,0,1,.31.06l.28.1a.66.66,0,0,0,.19,0s.05,0,.07,0,0,0,.07,0a.14.14,0,0,0,.21,0,.35.35,0,0,1,.19,0v-.11a.81.81,0,0,1-.22-.07.35.35,0,0,0-.3,0,.16.16,0,0,1-.21-.07.5.5,0,0,0-.19-.08c-.13,0-.16-.1-.09-.26s0,0,0,0,0,0,0,0,0,0,0,0a1.12,1.12,0,0,0-.17.19H172a.41.41,0,0,1,.05-.11.31.31,0,0,1,0-.08,0,0,0,0,0,0-.06.83.83,0,0,1,0-.12c0-.05-.05-.06-.1,0s0,0,0,0-.08-.1-.15-.09a.17.17,0,0,1-.13,0c-.05,0-.08,0-.1.13a.15.15,0,0,1-.09,0l0-.09c0-.08,0-.13,0-.13a.36.36,0,0,1-.33-.21c-.08.05-.12.06-.13,0a.36.36,0,0,0,0-.11s0,0,0-.07a.22.22,0,0,0,.05-.08h0v.11l.16-.07v.07s0,0,0,0l.13.06.13.07,0,0h.05c.05,0,.07,0,.07,0s0,.09,0,.1l.12,0,.35.13a1.36,1.36,0,0,1,.28.11l.27.13.16.08a.17.17,0,0,0,.12.05c.16,0,.22.11.19.24,0,0-.06,0-.07-.05L173,16h-.12s-.05,0-.05.06,0,0,0,.05a.41.41,0,0,0,.18.05.6.6,0,0,1,.19.06s0,0,.07.06.15.07.26,0l.1-.07a.12.12,0,0,0-.06.1.27.27,0,0,1-.06.1q.09,0,.12,0l.09-.12a.56.56,0,0,1,.14-.09s0,0,0,0v0s0,.06-.07.11l-.09.08.15,0H174s.06,0,.06-.07a.14.14,0,0,0,0-.11l-.08-.1-.08-.11-.11.06c-.05-.09-.09-.13-.12-.13a.64.64,0,0,0-.23.15.22.22,0,0,1,0-.08.61.61,0,0,1,0-.11,4.38,4.38,0,0,1-.91-.39l-.31-.18-.29-.17a4.16,4.16,0,0,0-.4-.22s0,0-.06,0l-.08,0a.15.15,0,0,1,0-.07s0,0,0-.06l-.44-.27a2.55,2.55,0,0,1-.4-.32,1.37,1.37,0,0,0-.19-.17.55.55,0,0,1-.17-.17,2,2,0,0,0-.29-.36,1.4,1.4,0,0,1-.27-.36,2.28,2.28,0,0,1-.17-.3l-.14-.33a.49.49,0,0,1-.09-.3.21.21,0,0,0-.07-.14c0-.05-.1-.06-.14,0a.89.89,0,0,0-.18.14l-.22.22-.23.24a1,1,0,0,0-.15.18.68.68,0,0,1-.12.12.43.43,0,0,0-.11.12c-.08.11-.15.22-.21.32a.58.58,0,0,0-.05.35.41.41,0,0,0,.09.26A.37.37,0,0,1,168,14.26Zm4.44,1.65a.39.39,0,0,0,.14.05l0,0,0,0h-.16A0,0,0,0,0,172.48,15.91Zm23.39,72.34h-3.41c2.24-3.93,3.38-6.51,3.41-8v-.71a2.6,2.6,0,0,0-.74-2,3.54,3.54,0,0,0-4.17,0,2.57,2.57,0,0,0-.75,2v1.93H192V79.49c.07-.74.16-.84,1-.92.88.08,1,.18,1,.92v.71c0,.8-1.22,3.75-3.79,8.31l-.07.12V90h5.66Zm7-18.4h-3.41c2.24-3.93,3.39-6.51,3.41-8v-.71a2.57,2.57,0,0,0-.74-2,3.58,3.58,0,0,0-4.17,0,2.64,2.64,0,0,0-.74,2V63H199V61.09c.08-.75.17-.85,1-.92s1,.17,1,.92v.71c0,.8-1.23,3.75-3.79,8.32l-.07.11v1.36h5.65Zm0,18.4h-3.41c2.24-3.93,3.39-6.51,3.41-8v-.71a2.58,2.58,0,0,0-.74-2,3.58,3.58,0,0,0-4.17,0,2.65,2.65,0,0,0-.74,2v1.93H199V79.49c.08-.74.17-.84,1-.92.87.08,1,.18,1,.92v.71c0,.8-1.23,3.75-3.79,8.31l-.07.12V90h5.65ZM186.08,71.59a3,3,0,0,0,2.08-.67,2.62,2.62,0,0,0,.74-2V61.08a2.59,2.59,0,0,0-.74-2,3.58,3.58,0,0,0-4.17,0,2.59,2.59,0,0,0-.74,2v7.85a2.62,2.62,0,0,0,.74,2A3,3,0,0,0,186.08,71.59Zm-1-10.51c.07-.74.16-.84,1-.91s1,.17,1,.91v7.85c-.07.74-.16.84-1,.92-.88-.08-1-.18-1-.92ZM225.53,110a2.29,2.29,0,0,0,.73.11l.38,0A.9.9,0,0,0,227,110a.58.58,0,0,0,.23-.17.49.49,0,0,0,.09-.3V96.76a.45.45,0,0,0-.31-.47,2,2,0,0,0-.73-.12,2.13,2.13,0,0,0-.37,0,1.14,1.14,0,0,0-.33.08.58.58,0,0,0-.24.19.46.46,0,0,0-.09.29v12.75A.46.46,0,0,0,225.53,110Zm0-16.06a2,2,0,0,0,.73.12l.38,0a1.59,1.59,0,0,0,.33-.09.71.71,0,0,0,.23-.18.45.45,0,0,0,.09-.3V91.31a.46.46,0,0,0-.31-.47,2.29,2.29,0,0,0-.73-.11,2.36,2.36,0,0,0-.38,0,.8.8,0,0,0-.33.09.47.47,0,0,0-.23.18.48.48,0,0,0-.09.29v2.14A.45.45,0,0,0,225.53,93.92ZM198.91,98a6.18,6.18,0,0,0-.95,2.3,14.4,14.4,0,0,0-.31,3.2v.13a20,20,0,0,0,.16,2.54,5.45,5.45,0,0,0,.69,2.06A3.64,3.64,0,0,0,200,109.6a5.86,5.86,0,0,0,2.66.51c.95,0,1.82,0,2.62-.13l2-.19.9.25a4.4,4.4,0,0,0,.65-.05,1.43,1.43,0,0,0,.54-.18,1,1,0,0,0,.35-.36,1,1,0,0,0,.13-.57v-8.66a3.51,3.51,0,0,0-.29-1.51,3.25,3.25,0,0,0-.8-1.09,4.15,4.15,0,0,0-1.18-.74,8.05,8.05,0,0,0-1.44-.44,13.24,13.24,0,0,0-1.59-.22c-.54,0-1.07-.06-1.6-.06a5.84,5.84,0,0,0-2.44.46A4,4,0,0,0,198.91,98Zm3,.14a3.63,3.63,0,0,1,.92-.22c.32,0,.63,0,.94,0a8.49,8.49,0,0,1,1.64.14,5.22,5.22,0,0,1,1.13.35,2.39,2.39,0,0,1,.72.52,2,2,0,0,1,.4.6,2.11,2.11,0,0,1,.17.63,4.08,4.08,0,0,1,0,.59v7.4a.87.87,0,0,0-.22,0h-.28c-.53,0-1.13.11-1.79.2a18.84,18.84,0,0,1-2.29.15,6.22,6.22,0,0,1-1.52-.16,2.28,2.28,0,0,1-1.11-.63,3,3,0,0,1-.68-1.29,8.62,8.62,0,0,1-.22-2.17v-1.39a8.88,8.88,0,0,1,.17-1.92,5.06,5.06,0,0,1,.46-1.35,2.67,2.67,0,0,1,.68-.87A3,3,0,0,1,201.88,98.13Zm-11.25,47-.39,0a1.87,1.87,0,0,1-.77,0l-.39,0c-.09,0-.14,0-.14.12,0,.36,0,.89.08,1.61s.08,1.25.08,1.61,0,.8,0,1.43,0,1.12,0,1.43,0,.28.15.28h1.34c.08,0,.12,0,.12-.14,0-.33,0-.83,0-1.5s0-1.17,0-1.5,0-.9.06-1.61.07-1.25.07-1.6C190.75,145.16,190.71,145.12,190.63,145.12Zm25-45.91a.8.8,0,0,1,.14-.35,1.42,1.42,0,0,1,.58-.45,4.61,4.61,0,0,1,1.23-.38,10.49,10.49,0,0,1,2.09-.17,4.12,4.12,0,0,1,1.05.1,2.78,2.78,0,0,1,.62.21l.4.21a.93.93,0,0,0,.42.1.88.88,0,0,0,.36-.07.51.51,0,0,0,.2-.18.72.72,0,0,0,.1-.22,1,1,0,0,0,0-.23,1.07,1.07,0,0,0-.18-.58,1.61,1.61,0,0,0-.53-.5,3.45,3.45,0,0,0-.92-.37,6.75,6.75,0,0,0-1.33-.17,13.81,13.81,0,0,0-1.43,0,11.48,11.48,0,0,0-1.45.17,10.35,10.35,0,0,0-1.33.32,6.26,6.26,0,0,0-1.1.48,2.55,2.55,0,0,0-.75.65,1.29,1.29,0,0,0-.28.79v10.91a.46.46,0,0,0,.32.47,2,2,0,0,0,.73.12,2.43,2.43,0,0,0,.38,0,1.14,1.14,0,0,0,.33-.08.84.84,0,0,0,.23-.18.45.45,0,0,0,.09-.3ZM225,125.64c-.24-.19-1.46-.92-3.67-2.19-1.31-.76-2-1.65-2-2.66,0-1.83.94-2.74,2.81-2.74a6.89,6.89,0,0,1,2.45.6l1.48.6a.27.27,0,0,0,.24-.15c.29-.65.48-1.14.6-1.49.35-.76.63-1.32.84-1.69a.73.73,0,0,0-.16-.22,7.38,7.38,0,0,0-2.59-1.19,10.86,10.86,0,0,0-2.81-.44,6.36,6.36,0,0,0-4.71,1.83,6.87,6.87,0,0,0-1.86,5,5.91,5.91,0,0,0,1.93,4.64s1.23.82,3.55,2.28a3.43,3.43,0,0,1,1.91,2.88c0,2.26-1.58,3.38-4.73,3.38-.26,0-.63,0-1.14-.08a10.47,10.47,0,0,0-1.12-.09.21.21,0,0,0-.23.24.77.77,0,0,0,.05.29c.17.67.3,1.18.38,1.52.14.82.23,1.45.27,1.88.08.27.67.41,1.77.41a9.15,9.15,0,0,0,6-2,7.23,7.23,0,0,0,2.71-6A6,6,0,0,0,225,125.64Zm-32-54a3,3,0,0,0,2.09-.67,2.65,2.65,0,0,0,.74-2V61.08a2.63,2.63,0,0,0-.74-2,3.58,3.58,0,0,0-4.17,0,2.6,2.6,0,0,0-.75,2v7.85a2.62,2.62,0,0,0,.75,2A3,3,0,0,0,193,71.59Zm-1-10.51c.07-.73.16-.83,1-.92.88.09,1,.18,1,.92v7.85c-.07.74-.15.84-1,.92-.87-.08-1-.18-1-.92Zm3,45.85a5.52,5.52,0,0,0,.08-.87,2.79,2.79,0,0,0-.41-1.55,3.43,3.43,0,0,0-1.06-1.05,6.36,6.36,0,0,0-1.51-.69c-.56-.18-1.14-.33-1.73-.46l-1.73-.39a10.79,10.79,0,0,1-1.5-.45,3.09,3.09,0,0,1-1.07-.65,1.31,1.31,0,0,1-.41-1,1.55,1.55,0,0,1,.15-.61,1.73,1.73,0,0,1,.53-.64,2.86,2.86,0,0,1,1-.5,4.81,4.81,0,0,1,1.54-.21,7.77,7.77,0,0,1,1.86.19,10.19,10.19,0,0,1,1.32.39,7.13,7.13,0,0,1,.89.4,1.38,1.38,0,0,0,.6.18,1,1,0,0,0,.41-.08.83.83,0,0,0,.24-.21.57.57,0,0,0,.08-.28.77.77,0,0,0,0-.3,2,2,0,0,0-.51-.74,3.07,3.07,0,0,0-.82-.54,6,6,0,0,0-1-.36,10.28,10.28,0,0,0-1.08-.21,10,10,0,0,0-1-.11l-.87,0a9.09,9.09,0,0,0-2.06.23,5.61,5.61,0,0,0-1.69.7A3.57,3.57,0,0,0,184,98.26a3,3,0,0,0-.42,1.6,2.9,2.9,0,0,0,.4,1.58,3.52,3.52,0,0,0,1.07,1.07,6.47,6.47,0,0,0,1.5.69c.57.18,1.14.33,1.73.47l1.74.39a10,10,0,0,1,1.5.44,3.18,3.18,0,0,1,1.07.65,1.3,1.3,0,0,1,.4,1,1.73,1.73,0,0,1-.28,1,2.37,2.37,0,0,1-.77.7,4.46,4.46,0,0,1-1.17.42,7.15,7.15,0,0,1-1.43.14,10.85,10.85,0,0,1-2.13-.18,11.16,11.16,0,0,1-1.51-.4c-.42-.15-.76-.29-1-.41a1.61,1.61,0,0,0-.65-.19.56.56,0,0,0-.46.2.78.78,0,0,0-.15.47,1.15,1.15,0,0,0,.54.91,5.22,5.22,0,0,0,1.38.7,11.92,11.92,0,0,0,1.91.45,14.71,14.71,0,0,0,2.09.16,11.08,11.08,0,0,0,2.13-.19,6.19,6.19,0,0,0,1.54-.5,3.66,3.66,0,0,0,1.05-.72,3.33,3.33,0,0,0,.63-.86A3.38,3.38,0,0,0,195,106.93ZM132.62,110a2.65,2.65,0,0,0,.74.1l.38,0a1.14,1.14,0,0,0,.33-.07.66.66,0,0,0,.23-.17.49.49,0,0,0,.09-.3v-6.39a18.41,18.41,0,0,0-.21-2.91,5.83,5.83,0,0,0-.76-2.2,3.66,3.66,0,0,0-1.54-1.4,5.6,5.6,0,0,0-2.52-.49c-1,0-2,0-2.86.08a13.06,13.06,0,0,0-2.32.31,4.21,4.21,0,0,0-1.55.67,1.34,1.34,0,0,0-.57,1.13v11.2a.42.42,0,0,0,.31.46,2.68,2.68,0,0,0,.73.1l.38,0a1.07,1.07,0,0,0,.33-.07.58.58,0,0,0,.23-.17.49.49,0,0,0,.09-.3V99.24a2.22,2.22,0,0,1,0-.37.59.59,0,0,1,.17-.33,1.52,1.52,0,0,1,.42-.28,3.86,3.86,0,0,1,.81-.21,11.87,11.87,0,0,1,1.33-.14c.54,0,1.19,0,2,0a4.19,4.19,0,0,1,1.86.35,2.36,2.36,0,0,1,1,1.09,5.38,5.38,0,0,1,.47,1.86c.07.76.11,1.65.11,2.69l0,5.7A.43.43,0,0,0,132.62,110ZM107.45,78.65A30.67,30.67,0,0,0,116,87.6a20.92,20.92,0,0,0,12.12,3.53,22.52,22.52,0,0,0,7.33-1.3,25.83,25.83,0,0,0,6.7-3.38l.21-.2h-.1a28.59,28.59,0,0,1-6.66,3.37,22.73,22.73,0,0,1-17-1,24.66,24.66,0,0,1-7.75-6c-.34-.41-.71-.83-1.09-1.24a8.07,8.07,0,0,1-1-1.35l.21.1V80c-.27-.42-.59-.87-.94-1.36a8.26,8.26,0,0,1-.83-1.45,44.83,44.83,0,0,0,4.11,5.09,28.29,28.29,0,0,0,4.84,4.16,23.39,23.39,0,0,0,5.61,2.81,19.73,19.73,0,0,0,6.45,1,22.41,22.41,0,0,0,9.2-2,26.09,26.09,0,0,0,7.75-5.26,26.82,26.82,0,0,0,5.36-7.48,20.2,20.2,0,0,0,2-8.79,4.56,4.56,0,0,1,.11-.73,4.73,4.73,0,0,0,.1-.62V61.91c.07-.83.16-1.65.26-2.44A19.66,19.66,0,0,0,153.2,57V56.5a36.34,36.34,0,0,1-.67,4.48c-.31,1.45-.68,2.91-1.09,4.36v-.41a31.25,31.25,0,0,0,.62-3.54,30.84,30.84,0,0,0,.21-3.64c-.07.14-.14.3-.21.47a1.09,1.09,0,0,0-.1.36c-.49,2.29-1,4.6-1.67,6.92a40.1,40.1,0,0,1-2.44,6.71,30.14,30.14,0,0,1-3.64,5.92,17.32,17.32,0,0,1-5.35,4.47c-.49.28-1,.63-1.67,1a3.18,3.18,0,0,1-1.77.63l.11-.1a34.1,34.1,0,0,0,4.16-2.76,20.17,20.17,0,0,0,3.12-3.07,29.27,29.27,0,0,0,2.49-3.59c.77-1.28,1.56-2.72,2.39-4.31v-.52l.11.21a1.61,1.61,0,0,0,.21-.63l-.11.11V69.4c.49-1.39.92-2.76,1.3-4.11a15.45,15.45,0,0,0,.58-4.21,46.62,46.62,0,0,1-3.12,9.46,25.47,25.47,0,0,1-5.72,8v-.1a31,31,0,0,0,6.55-11,39.42,39.42,0,0,0,2.08-12.68q-.21,2.91-.68,5.87a30.06,30.06,0,0,1-1.51,5.77v-.31c.35-1.18.66-2.37.94-3.59a15.89,15.89,0,0,0,.41-3.59v-.31l-.62,2.5a7.26,7.26,0,0,0-.31.93c-.09.31-.16.54-.21.73,0,.57,0,.95,0,.93v-.93c0,.12-.07.24-.09.32h0v0l-.1.19v-.2a5.12,5.12,0,0,1,.05-.73,3.91,3.91,0,0,0,.06-.73v-.21c-.05.17-.1.37-.15.55,0,1.53,0,3-.07,3a.1.1,0,0,1-.11-.11.1.1,0,0,1,.11-.1s0-1.33.07-2.76c-.17.63-.34,1.31-.53,2.09a10.67,10.67,0,0,1-1,2.66v-.21c.14-.42.31-1,.52-1.72a6.9,6.9,0,0,0,.32-1.82,48.71,48.71,0,0,1-4.74,10.14,18.72,18.72,0,0,1-8.37,7.33,9.94,9.94,0,0,1-4.16.94,14.81,14.81,0,0,0,5.67-2,16.53,16.53,0,0,0,4.52-4,8.53,8.53,0,0,0,.63-1,2.27,2.27,0,0,0,.31-1.09,11.18,11.18,0,0,0-.94,1,12.25,12.25,0,0,1-.93,1,19.34,19.34,0,0,1-4.47,3.48,10.83,10.83,0,0,1-5.41,1.4A11.68,11.68,0,0,1,121,77.56,20.61,20.61,0,0,1,115.87,71,32.56,32.56,0,0,1,113,62.64a42.19,42.19,0,0,1-.89-8.11,34.52,34.52,0,0,1,.29-4.26,47.43,47.43,0,0,1-.3-4.89,55.09,55.09,0,0,1,.73-8.74,25,25,0,0,1,2.81-8.32v.21a34.16,34.16,0,0,0-2.45,7.59,41.35,41.35,0,0,0-.78,8,43.43,43.43,0,0,0,.25,4.45c.16-1,.35-2,.6-3.1a38.77,38.77,0,0,1,3.53-9.62,25.94,25.94,0,0,1,6-7.64,12.85,12.85,0,0,1,8.63-3.12c.56,0,1.06,0,1.51,0a5.8,5.8,0,0,1,1.51.37,3.17,3.17,0,0,1-.68-.06,2.79,2.79,0,0,0-.47-.05H133A12.22,12.22,0,0,1,139,28.48,25,25,0,0,1,143.33,34a40,40,0,0,1,3.12,6.66c.83,2.32,1.56,4.48,2.18,6.5a8.07,8.07,0,0,0,1.09,2.18,2.13,2.13,0,0,0,2,1,2.89,2.89,0,0,1,.73,1.45c.14.63.48.94,1,.94a1.84,1.84,0,0,0,.52-.21,8.72,8.72,0,0,0,.83-.47q.42-.26.78-.51c.24-.18.36-.3.36-.37a7.53,7.53,0,0,0,.89-3.59c0-1.42,0-2.65,0-3.69a33.79,33.79,0,0,0-1.82-10.81A32.15,32.15,0,0,0,150,23.44a27.12,27.12,0,0,0-8.06-7,21.09,21.09,0,0,0-10.66-2.7,22.85,22.85,0,0,0-13.2,3.9,34.26,34.26,0,0,0-9.57,9.87,44.88,44.88,0,0,0-2.77,5.05c-.16.41-.32.82-.46,1.23l-1.36,3.85v-.31a8.76,8.76,0,0,1,.21-.94c0-.1,0-.19.08-.28a47.78,47.78,0,0,0-1.52,4.56c-.27,1-.49,1.92-.7,2.87,0,.5,0,1,0,1.5A50.57,50.57,0,0,0,102.4,52a41.36,41.36,0,0,0,1.5,6.81V59a29.42,29.42,0,0,1-1.66-7,61.55,61.55,0,0,1-.42-7.07c0-.29,0-.59,0-.88a49,49,0,0,0-1.15,10.24,50.17,50.17,0,0,0,1.67,12.43A41,41,0,0,0,107.45,78.65Zm16.22.89a11.47,11.47,0,0,0,4.79,1,7,7,0,0,0,2-.27A7.13,7.13,0,0,1,132.3,80a3.72,3.72,0,0,1-1.82.62c-.72.07-1.4.1-2,.1a11.83,11.83,0,0,1-4.79-1,11.42,11.42,0,0,1-4-2.91A14.86,14.86,0,0,0,123.67,79.54Zm-3.32-1.2a5.21,5.21,0,0,1,1.24,1,10.61,10.61,0,0,1-1.87-1.4l-.49-.47A8.94,8.94,0,0,0,120.35,78.34Zm-6.24-7.8a39.33,39.33,0,0,0,2.23,3.59A24.73,24.73,0,0,0,119,77.31c-.59-.56-1.19-1.16-1.78-1.83A28.29,28.29,0,0,1,115,72.73a4.31,4.31,0,0,1-.93-2.08Zm-4.8-.62a3.56,3.56,0,0,1-1.35-2Zm-3.59-6.66a25.25,25.25,0,0,0,1.41,3.23l-.11-.11a4.8,4.8,0,0,1-.62-1c-.28-.55-.55-1.18-.83-1.87s-.54-1.35-.78-2-.4-1-.47-1.25A15.3,15.3,0,0,1,105.72,63.26Zm-.4,5.93a20.08,20.08,0,0,0,1.4,4,35.13,35.13,0,0,0,3.75,6.24,27.48,27.48,0,0,0,4.94,5.1,22.67,22.67,0,0,0,6,3.43,19.88,19.88,0,0,0,7.12,1.25,21,21,0,0,0,8.16-1.67,22.35,22.35,0,0,0,7-4.57h.11a18.83,18.83,0,0,1-7,4.83,22,22,0,0,1-8.37,1.72,19.23,19.23,0,0,1-7.75-1.56,25,25,0,0,1-6.55-4.16,28.45,28.45,0,0,1-5.15-6,32.11,32.11,0,0,1-3.43-7c-.28-.76-.61-1.65-1-2.65a7.91,7.91,0,0,1-.57-2.76A21.28,21.28,0,0,1,105.32,69.19Zm50.06,27.28a1.32,1.32,0,0,0-.44-.23,1.9,1.9,0,0,0-.44-.07l-.36,0a.35.35,0,0,0-.22.1.91.91,0,0,0-.18.29c-.05.13-.12.31-.2.55l-4,10.85a.75.75,0,0,1-.21.32.51.51,0,0,1-.36.12h-.05a.49.49,0,0,1-.36-.12.75.75,0,0,1-.21-.32l-4-10.85-.2-.55a.76.76,0,0,0-.17-.29.35.35,0,0,0-.22-.1l-.36,0a2.06,2.06,0,0,0-.46.07,1.37,1.37,0,0,0-.43.23,1.05,1.05,0,0,0-.27.43,1.08,1.08,0,0,0,.06.65l4.12,11a3.29,3.29,0,0,0,.41.82,1.93,1.93,0,0,0,.53.47,2.05,2.05,0,0,0,.66.22,4.49,4.49,0,0,0,.77.07h.27a4.37,4.37,0,0,0,.76-.07,2,2,0,0,0,.65-.22,1.68,1.68,0,0,0,.53-.47,3.29,3.29,0,0,0,.41-.82l4.13-11a1.08,1.08,0,0,0,.06-.65A.88.88,0,0,0,155.38,96.47Zm-29.09,17.18a9.26,9.26,0,0,0-7.48,3.77,14.31,14.31,0,0,0,0,17.31,9.4,9.4,0,0,0,15,0,14.33,14.33,0,0,0,0-17.3A9.28,9.28,0,0,0,126.29,113.65Zm4.89,18.19a5.92,5.92,0,0,1-4.92,2.64,5.85,5.85,0,0,1-4.86-2.64,10,10,0,0,1,0-11.56,5.85,5.85,0,0,1,9.76,0A9.28,9.28,0,0,1,133,126,9.47,9.47,0,0,1,131.18,131.84Zm8.51-35.55a2,2,0,0,0-.74-.12,2.22,2.22,0,0,0-.37,0,1.14,1.14,0,0,0-.33.08.65.65,0,0,0-.24.19.46.46,0,0,0-.09.29v12.75a.47.47,0,0,0,.32.47,2.29,2.29,0,0,0,.73.11l.37,0a.9.9,0,0,0,.34-.09.66.66,0,0,0,.23-.17.49.49,0,0,0,.09-.3V96.76A.46.46,0,0,0,139.69,96.29Zm-71-67.45a.41.41,0,0,0,.21-.05c.07,0,.07-.05,0-.05h-.41C68.49,28.81,68.56,28.84,68.69,28.84Zm2.19.11a3.27,3.27,0,0,0,.57-.05c.17,0,.22-.06.16-.06a6.51,6.51,0,0,1-.73-.05,1.66,1.66,0,0,0-.73.05c-.07,0,0,0,.16.06A3.27,3.27,0,0,0,70.88,29Zm68.81,61.89a2.31,2.31,0,0,0-.74-.11,2.42,2.42,0,0,0-.38,0,.9.9,0,0,0-.33.09A.58.58,0,0,0,138,91a.48.48,0,0,0-.09.29v2.14a.46.46,0,0,0,.32.47A2,2,0,0,0,139,94l.37,0a1.53,1.53,0,0,0,.34-.09.84.84,0,0,0,.23-.18.45.45,0,0,0,.09-.3V91.31A.47.47,0,0,0,139.69,90.84ZM72.65,29c.06,0,.06-.05,0-.05H72a.43.43,0,0,0,.31.1A.69.69,0,0,0,72.65,29ZM99.32,95.92s.05,0,.05-.11h-.1C99.27,95.88,99.28,95.92,99.32,95.92ZM74.93,29.26c-.34-.07-.69-.12-1-.16s-.69-.05-1-.05c.35.07.7.12,1,.16S74.59,29.26,74.93,29.26Zm83.16,118.66a3.2,3.2,0,0,0-.84-2.24,2.79,2.79,0,0,0-2.16-1,3,3,0,0,0-2.35,1.09,3.65,3.65,0,0,0-.91,2.47,3.27,3.27,0,0,0,3.5,3.5,3.42,3.42,0,0,0,2.59-1.07c.07-.08.11-.13.11-.16a3.61,3.61,0,0,0-.24-.5c-.16-.31-.25-.47-.26-.48a.1.1,0,0,0-.07,0c-.07.07-.15.12-.22.18a3.2,3.2,0,0,1-2,.71,2,2,0,0,1-1.18-.41,1.53,1.53,0,0,1-.67-1c2.64-.2,4.07-.34,4.26-.41A.65.65,0,0,0,158.09,147.92Zm-2-.28a17.08,17.08,0,0,1-2.44.21c-.17,0-.25,0-.25-.15a1.64,1.64,0,0,1,.49-1.14,1.54,1.54,0,0,1,1.13-.51,1.45,1.45,0,0,1,1,.44,1.4,1.4,0,0,1,.44,1C156.45,147.56,156.32,147.6,156.06,147.64Zm18,.25c0-.06,0-.12.13-.18a3.12,3.12,0,0,0,1.07-1.17,3.91,3.91,0,0,0,.28-1.61,2.75,2.75,0,0,0-1-2.28,3.84,3.84,0,0,0-2.45-.73l-1.77,0-1.77,0c-.2,0-.29.05-.29.14v.11c.1,1.64.16,3.19.16,4.64,0,.51,0,1.27-.08,2.29s-.07,1.79-.07,2.3a.15.15,0,0,0,.17.16l.36,0a2.71,2.71,0,0,1,.36,0l.42,0,.42,0c.09,0,.14,0,.14-.15,0-.31,0-.79,0-1.43s0-1.12,0-1.44.05-.34.14-.36.5,0,1.13,0h.63a.58.58,0,0,1,.5.31c.69,1.62,1.1,2.58,1.25,2.9a.28.28,0,0,0,.24.17l.43,0a3.91,3.91,0,0,1,.43,0,3.36,3.36,0,0,1,.4,0l.4,0c.07,0,.11,0,.11-.06a17.2,17.2,0,0,0-.82-1.84C174.3,148.56,174,148,174,147.89Zm-2.14-1q-.76,0-1.41,0l-.41,0a.14.14,0,0,1-.09,0v-1.32c0-1.08,0-1.74.05-2s.39-.18,1.13-.18a4.23,4.23,0,0,1,1.91.31,1.77,1.77,0,0,1,.72,1.67C173.79,146.39,173.15,146.92,171.89,146.92ZM84,52.67v0s0,.09,0,.14S84.05,52.77,84,52.67Zm84,73c-.23-.19-1.46-.92-3.66-2.19-1.32-.76-2-1.65-2-2.66,0-1.83.93-2.74,2.81-2.74a6.94,6.94,0,0,1,2.45.6l1.47.6a.27.27,0,0,0,.24-.15,15.27,15.27,0,0,0,.6-1.49c.36-.76.64-1.32.84-1.69a.59.59,0,0,0-.15-.22,7.44,7.44,0,0,0-2.6-1.19,10.8,10.8,0,0,0-2.81-.44,6.34,6.34,0,0,0-4.7,1.83,6.87,6.87,0,0,0-1.86,5,5.93,5.93,0,0,0,1.92,4.64c.05,0,1.24.82,3.56,2.28a3.45,3.45,0,0,1,1.91,2.88c0,2.26-1.58,3.38-4.74,3.38-.25,0-.63,0-1.13-.08A10.61,10.61,0,0,0,159,134a.21.21,0,0,0-.23.24,1,1,0,0,0,0,.29c.17.67.3,1.18.38,1.52.14.82.24,1.45.28,1.88.08.27.67.41,1.77.41a9.19,9.19,0,0,0,6-2,7.25,7.25,0,0,0,2.7-6A6,6,0,0,0,168,125.64ZM80.65,69.19c0-.07,0-.1-.1-.1S80.58,69.19,80.65,69.19ZM148.24,142q0-.15-.12-.15c-.17,0-.42,0-.75,0s-.59,0-.76,0-.11.06-.11.17,0,.38,0,.69,0,.54,0,.69v2.23a.11.11,0,0,1,0,.1l-.59-.52a2.36,2.36,0,0,0-1.51-.51,2.94,2.94,0,0,0-2.34,1.05,3.68,3.68,0,0,0-.85,2.46,3.59,3.59,0,0,0,.85,2.41,2.84,2.84,0,0,0,2.28,1.06,2.88,2.88,0,0,0,2.17-1,.35.35,0,0,1,.1-.09s0,.17.06.49.05.47.11.47a1.85,1.85,0,0,0,.3,0l.3,0,.27,0H148q.18,0,.18-.09v-.08c-.08-.94-.11-2.31-.11-4.12,0-.59,0-1.47.07-2.65S148.24,142.61,148.24,142ZM146,149.74a1.7,1.7,0,0,1-1.36.65,1.75,1.75,0,0,1-1.38-.65,2.07,2.07,0,0,1-.54-1.43,2.22,2.22,0,0,1,.52-1.49,1.74,1.74,0,0,1,1.4-.66,1.65,1.65,0,0,1,1.34.67,2.21,2.21,0,0,1,.51,1.45A2.26,2.26,0,0,1,146,149.74Zm39.21-1.82a3.16,3.16,0,0,0-.85-2.24,2.79,2.79,0,0,0-2.16-1,3,3,0,0,0-2.35,1.09,3.7,3.7,0,0,0-.91,2.47,3.27,3.27,0,0,0,3.5,3.5,3.42,3.42,0,0,0,2.59-1.07c.08-.08.11-.13.11-.16a3.61,3.61,0,0,0-.24-.5l-.25-.48-.08,0a1.92,1.92,0,0,1-.22.18,3.17,3.17,0,0,1-2,.71,1.94,1.94,0,0,1-1.18-.41,1.5,1.5,0,0,1-.67-1c2.64-.2,4.06-.34,4.26-.41A.66.66,0,0,0,185.23,147.92Zm-2-.28a17.08,17.08,0,0,1-2.44.21c-.16,0-.25,0-.25-.15a1.61,1.61,0,0,1,.5-1.14,1.52,1.52,0,0,1,1.12-.51,1.44,1.44,0,0,1,1,.44,1.37,1.37,0,0,1,.45,1C183.59,147.56,183.46,147.6,183.19,147.64Zm-21.89-117a2.25,2.25,0,0,1,.08.24.71.71,0,0,0,.11.21,1.07,1.07,0,0,0,.15.22l.15.22.08.2a.43.43,0,0,0,.13.17,1.27,1.27,0,0,1,.36.6l.07.13v0s0,0,0,0a0,0,0,0,1,0,0,1.57,1.57,0,0,1,.17.21,1.7,1.7,0,0,0,.19.2.61.61,0,0,1,0-.14.31.31,0,0,0,0-.09.05.05,0,0,0,0,0h0c0,.12.06.2.13.23a.49.49,0,0,0,.25,0,1.24,1.24,0,0,0,.27,0c.08,0,.15,0,.2-.16a.19.19,0,0,1,.3,0,.94.94,0,0,0,.57.2,4.3,4.3,0,0,0,.61,0,3.63,3.63,0,0,0,.59-.13,1.68,1.68,0,0,0,.54-.26l.35-.2.49-.3.48-.28c.16-.08.28-.15.38-.19l.08,0,.08,0,.61-.49c.21-.16.4-.32.59-.49a5.3,5.3,0,0,1,.6-.46,1.47,1.47,0,0,0,.5-.55c.05-.05.08-.06.08-.05l.21-.19.08-.09.08-.08a.3.3,0,0,1,.11-.06.19.19,0,0,0,.1-.05l.46-.44.48-.45.41-.37a.52.52,0,0,0-.37-.06.74.74,0,0,0-.25.17,7.11,7.11,0,0,1-.63.6c-.22.19-.45.37-.68.55l-.13.09-.13.1a.11.11,0,0,1-.11,0l-.1,0s0,0,0-.06,0,0,.06-.05l.05,0,.05,0,.29-.28.29-.29a.43.43,0,0,0,.09-.1l.08-.11c.36-.36.73-.73,1.12-1.09l1.14-1.1s0-.05-.05-.06l0,0-.14.17a1.29,1.29,0,0,1-.17.16l-.67.58-.69.56-.81.72c-.26.23-.54.46-.82.69l-1,.78c-.33.26-.67.52-1,.76l-.51.34-.62.41-.63.39-.52.31a3.47,3.47,0,0,1-1,.38,2.83,2.83,0,0,1-1.06.08.59.59,0,0,1-.4-.24.49.49,0,0,1-.08-.23,1.85,1.85,0,0,0,0-.23l-.07-.12c0-.11-.07-.16-.11-.18a.17.17,0,0,1,0-.26.18.18,0,0,0,0-.23.33.33,0,0,1,.05-.46s.06-.05.09-.11,0-.14.05-.22a1.72,1.72,0,0,1,.07-.21.32.32,0,0,0-.13-.08c-.05,0,0-.07,0-.14a.18.18,0,0,0,0-.07.21.21,0,0,1,.06-.08.36.36,0,0,0,0-.09.09.09,0,0,1,.06-.06c.17-.09.24-.21.21-.35l.14-.06,0,0a3.41,3.41,0,0,0,.83,0,4.07,4.07,0,0,0,.82-.09h0a.8.8,0,0,0,.21,0l.75-.21a2,2,0,0,0,.7-.33l.08,0,.31-.2a2,2,0,0,0,.3-.2,1.84,1.84,0,0,0,.22-.17l.23-.17.3-.22a1.7,1.7,0,0,0,.28-.21q.17-.18.3-.36a.87.87,0,0,1,.36-.29.22.22,0,0,0,.12-.13,1,1,0,0,1,.17-.29,2.43,2.43,0,0,1,.24-.3,2.48,2.48,0,0,0,.25-.3c.09-.12.19-.24.28-.37l.28-.39a4.19,4.19,0,0,0,.45-.61,3.54,3.54,0,0,0,.26-.41.16.16,0,0,0,0-.1.14.14,0,0,1,0-.1.27.27,0,0,0,.13-.18,1,1,0,0,1,.06-.21c0-.08.05-.17.07-.24s0-.17,0-.25a.69.69,0,0,1,.14-.25c.06-.08,0-.17-.12-.25a.22.22,0,0,1,0-.08l0,0a.66.66,0,0,1,0-.48.58.58,0,0,0,0-.48,2,2,0,0,1-.18-.43,2.35,2.35,0,0,0-.18-.45,1.29,1.29,0,0,1-.08-.31,1.27,1.27,0,0,0-.06-.28.08.08,0,0,1,0,0c-.08-.16-.16-.31-.24-.44a1,1,0,0,0-.37-.35.87.87,0,0,1-.19-.1.81.81,0,0,1-.16-.16.47.47,0,0,0-.17-.15l-.21-.08h-.1L169.3,18s-.08,0-.14,0l-.14.07a.36.36,0,0,0-.12.08,6.22,6.22,0,0,0-.61.49,3.18,3.18,0,0,0-.52.57,2.47,2.47,0,0,1-.46.51,4.7,4.7,0,0,0-.51.49c-.15.16-.31.31-.47.45a4.81,4.81,0,0,0-.42.48.76.76,0,0,1-.2.2c-.09.05-.11.15-.06.28h-.09a.91.91,0,0,0-.38.21c-.13.12-.18.22-.16.31s0,.25-.15.28l-.11.17a1.47,1.47,0,0,1-.1.13h-.07a1.1,1.1,0,0,0,.07-.17l-.77.91.09.12.09.09a.17.17,0,0,1-.1,0,.2.2,0,0,0-.11,0q0,.21,0,.27a1.14,1.14,0,0,1-.3.16h-.07a1.8,1.8,0,0,1-.11.2,1,1,0,0,0-.1.17,1.68,1.68,0,0,0-.18.21l-.2.2q.12.18-.21.18a.92.92,0,0,1,.14.15l-.22.13s0,.07,0,.09l-.09.06-.15.14c0,.06-.07.11-.06.12s.09.19,0,.22a.64.64,0,0,1-.18.06l-.05.18c-.14,0-.18.16-.14.32a.17.17,0,0,1-.07.13c-.23.07-.28.19-.14.37-.08,0-.13.06-.14.11s-.16.41-.26.61a1.46,1.46,0,0,0-.11.69.06.06,0,0,1,0,.06c0,.15,0,.29-.06.42s0,.26-.06.41a1.67,1.67,0,0,0,0,.59A4.39,4.39,0,0,0,161.3,30.59Zm1-1.3s0,0-.07,0a.11.11,0,0,0,0,0,.05.05,0,0,1,0,0,.74.74,0,0,0,.08-.15.48.48,0,0,1,.07-.15.34.34,0,0,1,0,.2A.21.21,0,0,1,162.31,29.29Zm.43-1a2.4,2.4,0,0,1-.2.39h-.07a.43.43,0,0,1,.05-.24l.15-.25a.85.85,0,0,0,.13-.25s0-.06.1-.08,0,0,0,0A3.72,3.72,0,0,0,162.74,28.27Zm.7-2.23a.45.45,0,0,0-.21.17s-.09,0-.12,0-.07,0,0-.06a1.88,1.88,0,0,0,.12-.18l.16-.17s.06,0,.14,0S163.53,26,163.44,26Zm.05.82a.51.51,0,0,1,.14-.42.61.61,0,0,1,.37-.21l-.26.32Zm4.1.16c0,.07,0,.12-.06.14a1.87,1.87,0,0,1-.29.2l-.32.17-.07-.06.28-.2.12-.13a.71.71,0,0,0,.12-.13.26.26,0,0,1,.26-.17A1.16,1.16,0,0,0,167.59,27Zm.37-.31c0,.06-.07.09-.1.09l-.23,0,.06-.08a.1.1,0,0,1,.06-.07.12.12,0,0,1,.16,0s0,0,.05,0S168,26.69,168,26.71Zm-2-1.4a3.9,3.9,0,0,1,.31-.4.16.16,0,0,0,0-.1.41.41,0,0,1,0-.12.86.86,0,0,0,.47-.3,4.47,4.47,0,0,1,.35-.41l.29-.27a2,2,0,0,0,.28-.3,2.49,2.49,0,0,0,.19-.3,2.73,2.73,0,0,1,.21-.3.49.49,0,0,1,.11-.13l.19-.1.17-.12a2.35,2.35,0,0,0,.3-.33,1.75,1.75,0,0,1,.33-.28,1,1,0,0,0,.28-.19l.26-.2.18-.13.18-.15a.72.72,0,0,0,.18-.15l.19-.17a.29.29,0,0,1,.21-.09s.06,0,.08.06a.21.21,0,0,1,0,.11c0,.15,0,.29,0,.44a1.56,1.56,0,0,1,0,.43,4.08,4.08,0,0,1-.35,1.17,8.13,8.13,0,0,1-.62,1.06.16.16,0,0,0,0,.11.36.36,0,0,1,0,.11.16.16,0,0,1,0,.11l-.37.43c-.13.14-.26.29-.38.44s-.19.23-.3.34l-.31.35-.1.08a3.23,3.23,0,0,1-.48.56,4.74,4.74,0,0,1-.6.46,1,1,0,0,1-.24.14l-.23.12-.71.46a.12.12,0,0,1-.09,0l-.18.07-.15.06-.16.06-.22,0-.21.06-.21.07a.77.77,0,0,1-.4,0,1.87,1.87,0,0,0-.4,0l.31-.41,0-.05a.94.94,0,0,0,.3-.39,2.76,2.76,0,0,1,.2-.43.58.58,0,0,1,.11-.15l.12-.13.12-.11.09-.16a1,1,0,0,0,.1-.17.67.67,0,0,0,0-.19.39.39,0,0,1,0-.14s.07-.05.14,0,0,0,.07,0a.14.14,0,0,0,.07,0A3.9,3.9,0,0,0,166,25.31Zm-.37-2.91.11-.11a.06.06,0,0,1,.05,0,.16.16,0,0,0,0,.1.12.12,0,0,1-.05.09s0,.05-.07.05a.18.18,0,0,0-.1,0,.14.14,0,0,1,0-.07A.47.47,0,0,0,165.61,22.4Zm-.42.29a.59.59,0,0,1,.11-.08l.06,0,.08.05.07,0-.08.14-.08.12s0,0,0,0a1.16,1.16,0,0,1-.21-.15Zm-.08.25a.06.06,0,0,1,.06,0s0,.05.06.06-.11.1-.14.1a.12.12,0,0,1-.1,0h-.09s0,.08,0,.11a.16.16,0,0,0,0,.09l-.23-.13C164.83,23,165,22.92,165.11,22.94Zm-1.74,1.9a8.33,8.33,0,0,1,1.29-1.51c.17.07.21.16.1.28a2.09,2.09,0,0,0-.14.17.8.8,0,0,1-.17.15,1.18,1.18,0,0,1-.28.2s0,.14.07.28a1.57,1.57,0,0,1-.26.19.33.33,0,0,0-.16.29.4.4,0,0,1-.13.09l-.2.08-.15.07q.12.2.09.24a1.57,1.57,0,0,1-.25.13.35.35,0,0,0-.15.12,1.74,1.74,0,0,0-.11.18.13.13,0,0,0,.07,0,.3.3,0,0,0,0-.08s0,0,0-.07a.26.26,0,0,1,.12-.07.06.06,0,0,1,.06,0s0,0,0,.05,0,0,0,0l0,.06L163,26a1.94,1.94,0,0,1-.2.21l-.06,0-.06,0a.66.66,0,0,0,0,.14c0,.06,0,.09,0,.12l-.06.16-.08.13-.14-.08a.36.36,0,0,1-.12-.08C162.65,26,163,25.39,163.37,24.84ZM162.1,27a3,3,0,0,1,.21-.33h.07a.08.08,0,0,0,0,.08.08.08,0,0,1,0,.07c-.16.11-.18.23-.05.35l-.2.1-.18.09,0,0Zm-.24.55a.13.13,0,0,0,0-.08l.07,0a1.65,1.65,0,0,1,.09.22s0,0,0,0,0,0,0,0a.62.62,0,0,1-.17-.11A.14.14,0,0,1,161.86,27.55ZM151,125.64c-.24-.19-1.46-.92-3.67-2.19-1.31-.76-2-1.65-2-2.66,0-1.83.94-2.74,2.81-2.74a6.89,6.89,0,0,1,2.45.6l1.48.6a.27.27,0,0,0,.24-.15c.29-.65.48-1.14.6-1.49.35-.76.63-1.32.84-1.69a.59.59,0,0,0-.16-.22,7.38,7.38,0,0,0-2.59-1.19,10.86,10.86,0,0,0-2.81-.44,6.38,6.38,0,0,0-4.71,1.83,6.87,6.87,0,0,0-1.86,5,5.93,5.93,0,0,0,1.92,4.64c.06,0,1.24.82,3.56,2.28a3.43,3.43,0,0,1,1.91,2.88c0,2.26-1.57,3.38-4.73,3.38-.26,0-.63,0-1.14-.08a10.47,10.47,0,0,0-1.12-.09c-.16,0-.23.08-.23.24a1.55,1.55,0,0,0,0,.29c.18.67.31,1.18.39,1.52.14.82.23,1.45.27,1.88.08.27.67.41,1.77.41a9.15,9.15,0,0,0,6-2,7.23,7.23,0,0,0,2.71-6A6,6,0,0,0,151,125.64Zm38.39,12.24c.11-.78.18-1.37.21-1.78,0-.09.08-.35.17-.78a3.54,3.54,0,0,0,.12-.77c0-.31-.1-.45-.3-.43l-.23,0q-4.94.41-6,.41h-1.68a3.26,3.26,0,0,1-1.91-.35c-.33-.3-.49-1-.49-2.2V129.5c0-.94,0-1.38,0-1.3a.73.73,0,0,1,.71-.71c.45,0,1.51-.07,3.19-.07,2,0,3.28,0,3.85.1.78.08,1.23.12,1.36.12q.45,0,.45-.3,0-.56.12-1.68a16.2,16.2,0,0,0,.11-1.66c0-.22-.1-.32-.32-.3-.84.09-1.57.15-2.2.17-1.58.08-3.38.12-5.37.12h-1a.72.72,0,0,1-.8-.52,10.63,10.63,0,0,1,0-1.2v-2.52a3.24,3.24,0,0,1,.33-1.85c.22-.25.75-.37,1.58-.37s2.2,0,4,.16,3.07.16,3.93.16c.23,0,.34-.13.34-.39s-.11-1.28-.32-2.77c0-.33-.3-.49-.78-.49q-1,0-3.06.06c-1.36,0-2.38.07-3.06.07s-1.78,0-3.21-.07-2.49-.06-3.21-.06c-.27,0-.4.13-.39.38v.24c.09,1.8.15,3.14.17,4,.12,3.5.19,5.9.19,7.19s-.07,3.16-.2,5.69-.19,4.43-.19,5.7a.44.44,0,0,0,.5.49c.75,0,1.87,0,3.36-.07s2.62-.07,3.36-.07a38.81,38.81,0,0,1,5.82.31,5.26,5.26,0,0,0,.58.06A.37.37,0,0,0,189.4,137.88Zm-28.64-28a13.21,13.21,0,0,0,4.52,0,7.17,7.17,0,0,0,1.61-.48,3.08,3.08,0,0,0,1-.69,1.19,1.19,0,0,0,.36-.82.71.71,0,0,0-.21-.53.68.68,0,0,0-.54-.19,1.51,1.51,0,0,0-.48.21,5.73,5.73,0,0,1-.82.4,6.66,6.66,0,0,1-1.29.39,8.86,8.86,0,0,1-1.93.18,6.4,6.4,0,0,1-1.86-.22,2.56,2.56,0,0,1-1.14-.67,2.41,2.41,0,0,1-.59-1.09,7.37,7.37,0,0,1-.2-1.52l1.74-.23,1.94-.29c.64-.11,1.27-.21,1.88-.33s1.13-.23,1.59-.34a7.65,7.65,0,0,0,1.5-.51,2.63,2.63,0,0,0,.91-.69,2.17,2.17,0,0,0,.44-1,4.81,4.81,0,0,0,.07-1.3,3.9,3.9,0,0,0-.52-1.87,3.76,3.76,0,0,0-1.27-1.27,6.41,6.41,0,0,0-1.89-.72,11.69,11.69,0,0,0-2.37-.23,8,8,0,0,0-3.16.52,4.11,4.11,0,0,0-1.86,1.46,5.55,5.55,0,0,0-.87,2.3,19.57,19.57,0,0,0-.21,3c0,.69,0,1.34.05,1.94a8.93,8.93,0,0,0,.26,1.64,4.49,4.49,0,0,0,.6,1.31,3.28,3.28,0,0,0,1,1A5.38,5.38,0,0,0,160.76,109.9Zm-1.47-8.18a7.77,7.77,0,0,1,.2-1.37,3.46,3.46,0,0,1,.43-1.1,2.48,2.48,0,0,1,.78-.8A3.85,3.85,0,0,1,162,98a8.63,8.63,0,0,1,1.83-.17,5.32,5.32,0,0,1,1.27.16,3.66,3.66,0,0,1,1.1.49,2.56,2.56,0,0,1,.78.79,2.15,2.15,0,0,1,.33,1.08,1.71,1.71,0,0,1-.36,1.38,2.48,2.48,0,0,1-1.36.66c-.44.09-.94.19-1.51.28l-1.72.28-1.69.25-1.41.2C159.23,102.77,159.26,102.23,159.29,101.72ZM79.72,70.23c0,.07,0,.11.1.11A.1.1,0,0,0,79.72,70.23ZM71.81,88.85a.1.1,0,0,0,.11.1C71.92,88.88,71.88,88.85,71.81,88.85Zm-.31.31c0,.07,0,.1.11.1S71.57,89.16,71.5,89.16ZM74.41,86c0,.07,0,.1.11.1S74.48,86,74.41,86Zm-.1.1a.1.1,0,0,0,.1.11C74.41,86.18,74.38,86.14,74.31,86.14Zm-2.7,2.91c0,.07,0,.11.1.11A.1.1,0,0,0,71.61,89.05Zm.1-.1c0,.07,0,.1.1.1S71.78,89,71.71,89Zm.52-.52a.09.09,0,0,0,.1.1C72.33,88.46,72.3,88.43,72.23,88.43Zm-.31.31c0,.07,0,.11.1.11S72,88.74,71.92,88.74Zm.21-.21c0,.07,0,.11.1.11S72.2,88.53,72.13,88.53ZM75,85.31c0,.07,0,.1.1.1S75.11,85.31,75,85.31Zm-3,3.33c0,.07,0,.1.11.1S72.09,88.64,72,88.64ZM81,69.5c0,.07,0,.11.1.11A.1.1,0,0,0,81,69.5ZM56.22,89.26c0,.07,0,.1.1.1A.09.09,0,0,0,56.22,89.26ZM71,89.68c0,.07,0,.1.11.1S71.05,89.68,71,89.68Zm.11-.11c0,.07,0,.11.1.11A.1.1,0,0,0,71.09,89.57Zm-.21.21c0,.07,0,.1.1.1A.09.09,0,0,0,70.88,89.78ZM80.44,69.5c0-.07,0-.1-.1-.1A.09.09,0,0,0,80.44,69.5Zm-9.25,20c0,.07,0,.1.1.1A.09.09,0,0,0,71.19,89.47Zm.21-.21c0,.07,0,.1.1.1A.09.09,0,0,0,71.4,89.26Zm-19,2.6c0,.07,0,.1.1.1A.09.09,0,0,0,52.37,91.86Zm22.15-5.93c0,.07,0,.11.1.11S74.59,85.93,74.52,85.93Zm-3.23,3.43a.1.1,0,0,0,.11.11A.1.1,0,0,0,71.29,89.36Zm2.4-2.49c0,.07,0,.1.1.1A.09.09,0,0,0,73.69,86.87Zm-1.36-.94a.1.1,0,0,0,.11.11A.1.1,0,0,0,72.33,85.93Zm1.15-1.25c0,.08,0,.11.1.11S73.55,84.68,73.48,84.68Zm-1,1.15c0,.07,0,.1.1.1A.09.09,0,0,0,72.44,85.83ZM70.26,75c0,.07,0,.1.1.1A.09.09,0,0,0,70.26,75Zm2.28,10.71c0,.07,0,.1.11.1S72.61,85.73,72.54,85.73Zm1.56-1.56c0-.07,0-.11-.1-.11S74,84.17,74.1,84.17Zm-.93.83c0,.07,0,.1.1.1S73.24,85,73.17,85Zm.1-.11c0,.07,0,.11.1.11S73.34,84.89,73.27,84.89ZM70.57,74.6c0,.07,0,.1.1.1A.09.09,0,0,0,70.57,74.6Zm3.64,9.46c0-.07,0-.1-.11-.1S74.14,84.06,74.21,84.06Zm-.84.73c0,.07,0,.1.11.1S73.44,84.79,73.37,84.79Zm0,2.39a.1.1,0,0,0,.11.11A.1.1,0,0,0,73.37,87.18Zm-1,1.15c0,.07,0,.1.11.1S72.4,88.33,72.33,88.33ZM69.74,77.2a.1.1,0,0,0-.11-.11A.1.1,0,0,0,69.74,77.2Zm3.74,9.88c0,.07,0,.1.1.1S73.55,87.08,73.48,87.08Zm.1-.11a.1.1,0,0,0,.11.11A.1.1,0,0,0,73.58,87Zm-1.14,1.25c0,.07,0,.11.1.11S72.51,88.22,72.44,88.22ZM70.67,75.85c0,.07,0,.1.11.1S70.74,75.85,70.67,75.85Zm-.21-1.15a.1.1,0,0,0,.11.11A.1.1,0,0,0,70.46,74.7Zm.42-.52c0,.07,0,.11.1.11S71,74.18,70.88,74.18Zm1.14.11c0-.07,0-.11-.1-.11S72,74.29,72,74.29ZM86.58,35a.1.1,0,0,0-.08,0l.17.11a.05.05,0,0,0,0,0A.1.1,0,0,0,86.58,35ZM69.32,91.34c0,.07,0,.1.1.1A.09.09,0,0,0,69.32,91.34Zm-.11-13.52a.09.09,0,0,0-.1-.1A.09.09,0,0,0,69.21,77.82Zm13-21a.42.42,0,0,1,0-.1.11.11,0,0,0-.05.09ZM69.42,91.24c0,.07,0,.1.11.1S69.49,91.24,69.42,91.24Zm-.31-13.31a.1.1,0,0,0-.1-.11C69,77.89,69,77.93,69.11,77.93Zm.21-.21a.1.1,0,0,0-.11-.11A.1.1,0,0,0,69.32,77.72Zm6.44,6.76c0,.07,0,.1.11.1S75.84,84.48,75.76,84.48Zm-9.43-5.39c-.56.58-1.12,1.18-1.66,1.8.44-.47.89-.93,1.32-1.4C66.11,79.36,66.22,79.22,66.33,79.09Zm13.28-8.75a.1.1,0,0,0,.11.1C79.72,70.37,79.68,70.34,79.61,70.34ZM60,85.93c0,.07,0,.11.1.11S60,85.93,60,85.93Zm20-16c0,.07,0,.1.1.1A.09.09,0,0,0,79.93,69.92ZM69,78c0-.07,0-.1-.11-.1S68.94,78,69,78ZM52.89,91.24c-.07,0-.11,0-.11.1s0,.1.11.1.1,0,.1-.1S53,91.24,52.89,91.24Zm23.4-7.39c0,.07,0,.11.1.11A.1.1,0,0,0,76.29,83.85Zm-12.9,0c0,.07,0,.11.1.11S63.46,83.85,63.39,83.85Zm.1-.1c0,.07,0,.1.11.1S63.57,83.75,63.49,83.75Zm2.4,11.13c0,.07,0,.1.1.1A.09.09,0,0,0,65.89,94.88ZM63.6,83.65a.09.09,0,0,0,.1.1C63.7,83.68,63.67,83.65,63.6,83.65Zm5-5.1c0-.07,0-.1-.1-.1S68.52,78.55,68.59,78.55Zm4.47,6.55a.1.1,0,0,0,.11.11A.1.1,0,0,0,73.06,85.1Zm3-1c0,.07,0,.11.1.11A.1.1,0,0,0,76.08,84.06Zm.1-.1c0,.07,0,.1.11.1S76.25,84,76.18,84ZM68,79.28a.1.1,0,0,0-.11-.11A.1.1,0,0,0,68,79.28Zm7.17,5.93a.1.1,0,0,0,.11.1C75.25,85.24,75.21,85.21,75.14,85.21Zm-4.36,4.67c0,.07,0,.11.1.11A.1.1,0,0,0,70.78,89.88ZM59.54,86.35c0,.07,0,.1.11.1S59.61,86.35,59.54,86.35Zm10.82,4c0,.07,0,.11.1.11S70.43,90.3,70.36,90.3Zm-.21.21c0,.07,0,.1.11.1S70.22,90.51,70.15,90.51Zm.11-.1a.09.09,0,0,0,.1.1A.09.09,0,0,0,70.26,90.41ZM59.86,86c0,.07,0,.1.1.1A.09.09,0,0,0,59.86,86Zm-3.12,2.81a.09.09,0,0,0,.1.1A.09.09,0,0,0,56.74,88.85ZM70.67,90c0,.07,0,.1.11.1A.1.1,0,0,0,70.67,90Zm-.1.1c0,.07,0,.11.1.11A.1.1,0,0,0,70.57,90.09ZM56.84,88.74c0,.07,0,.11.1.11S56.91,88.74,56.84,88.74ZM70.46,90.2c0,.07,0,.1.11.1S70.53,90.2,70.46,90.2ZM59.75,86.14a.1.1,0,0,0,.11.11A.1.1,0,0,0,59.75,86.14Zm10,4.78c0,.07,0,.11.1.11A.1.1,0,0,0,69.74,90.92Zm-.11.11c0,.07,0,.1.11.1S69.7,91,69.63,91Zm6-6.45c0,.07,0,.1.1.1A.09.09,0,0,0,75.66,84.58Zm-6.13,6.55c0,.07,0,.11.1.11A.1.1,0,0,0,69.53,91.13Zm.41-.41c0,.07,0,.1.11.1S70,90.72,69.94,90.72ZM80,69.82a.09.09,0,0,0,.1.1C80.13,69.85,80.1,69.82,80,69.82Zm-10.19,21c0,.07,0,.1.1.1A.09.09,0,0,0,69.84,90.82Zm.21-.21c0,.07,0,.11.1.11A.1.1,0,0,0,70.05,90.61Zm-10.4-4.36c0,.07,0,.1.1.1S59.72,86.25,59.65,86.25Z" transform="translate(-8.94 -12.17)"/></svg>