<?xml version="1.0" encoding="UTF-8"?> <!-- Generator: Adobe Illustrator 24.2.3, SVG Export Plug-In . SVG Version: 6.00 Build 0) --> <svg xmlns="http://www.w3.org/2000/svg" xmlns:xlink="http://www.w3.org/1999/xlink" version="1.1" id="Layer_1" x="0px" y="0px" viewBox="0 0 72.4 102" style="enable-background:new 0 0 72.4 102;" xml:space="preserve"> <style type="text/css"> .st0{fill:#FFFFFF;} </style> <g> <path class="st0" d="M52.4,50H40c-1.2,0-1.4,1.3-1.9,2.2c-1,1.9-6.7,2.7-7.5-2.2c-0.9-4.2-7-4.2-8,0c-0.8,4.9-7.5,4.9-8.3,0v-6.9 c1.5,4.1,7,4.1,7.8,0c0.8-4.1,7.1-4.1,7.9,0c0.8,4.1,5.1,3.4,6.4,2.2c0.7-0.7,1.1-1.2,2.2-1.2h10c3.9,0,3.9-5-0.1-5h-9.9 c-1.2,0-1.4,1.3-1.8,2.1c-1,1.8-6.4,2.6-7.1-2.1c-0.8-4-6.7-4-7.6,0c-0.8,4.7-7.1,4.7-7.8,0v-7.9c1.5,4.2,7,4.1,7.8,0.1 c0.8-4.1,7.1-4.1,7.9,0c0.8,4.1,5.1,3.4,6.3,2.1c0.7-0.7,1.1-1.2,2.2-1.2h9.9c4,0,4-5,0.1-5h-7.4c-1.3,0-1.5,1.4-2,2.3 c-1.1,2-7,2.8-7.8-2.3c-0.9-4.4-7.3-4.4-8.3,0c-0.9,5.1-7.8,5.1-8.6,0v-8c1.6,4.5,7.7,4.5,8.6,0c0.9-4.5,7.8-4.6,8.7,0 c0.9,4.5,5.6,3.7,6.9,2.4c0.8-0.8,1.2-1.4,2.5-1.4h11.4c7.5,0.1,10.1,10.7,4.1,15.3c6.1,5,3.4,15.1-4.1,15.1 M1.4,71h71V0h-71V71z"></path> <path class="st0" d="M12.8,87l-1.9-5.6L8.2,87H12.8z M7,90c-1,1.9-1.9,4-2.9,6H0c3.1-5.6,6-11.3,8.9-17h4.6 c1.9,5.7,4.1,11.4,6.2,17h-4c-0.6-2.1-1.3-4.1-2-6H7z"></path> <path class="st0" d="M27.5,85.2c-4.3,0-4.7,3.4-4.7,4.7c0,2,1,3.3,3.1,3.3c1.9,0,3-1.6,3.3-3.3c0.2-1.4,0.2-2.9,0.3-4.5 C28.8,85.3,28.2,85.2,27.5,85.2 M20.5,98.5c1.6,0.6,3.2,1,4.8,1c3.8,0,3.6-2.7,3.8-5.5h0c-1,1.4-2.6,2.2-4.4,2.2 c-3.4,0-5.4-2.2-5.4-5.5c0-2.2,1-7.4,8.3-7.4c1.8,0,3.6,0.3,5.4,0.6c-0.2,2.7-0.6,7.2-0.7,13c-0.1,4-2.5,5.1-6.1,5.1 c-1.9,0-3.7-0.3-5.6-0.7L20.5,98.5z"></path> <path class="st0" d="M38.3,85.7c-0.2,1.3-0.3,2.6-0.3,4.2c0,2,1.4,3.5,3.2,3.5c2.3,0,3.2-2.4,3.2-4.3c0-2.2-1-3.9-3.4-3.9 C40.1,85.2,39.2,85.5,38.3,85.7 M37.4,96H34c0.4-5.3,0.7-10.2,0.8-17h3.7l-0.4,4.4c1.1-0.2,2.2-0.4,3.4-0.4c4.1,0,6.3,2.2,6.3,6.1 c0,3.8-1.9,7.2-6.1,7.2c-1.8,0-3.3-0.8-4.2-2.3h-0.1V96z"></path> <path class="st0" d="M55.1,93.2c-2,0-3.1-1.3-3.1-3.3c0-1.3,0.5-4.7,4.7-4.7c0.7,0,1.3,0.1,2,0.2c-0.1,1.6-0.1,3-0.3,4.5 C58.1,91.6,57,93.2,55.1,93.2 M62.2,84c-1.8-0.3-3.5-0.6-5.3-0.6c-7.3,0-8.2,5.2-8.2,7.3c0,3.3,2,5.4,5.3,5.4 c1.8,0,3.4-0.7,4.4-2.1h0c-0.1,0.8-0.2,1.5-0.3,2h3.4C61.5,90.3,62,86.5,62.2,84"></path> <path class="st0" d="M67.5,85L67.5,85c0.8-1.5,1.9-2.2,3.4-2.2c0.4,0,0.7,0,1.1,0.1l0.1,2.9c-0.5-0.1-0.9-0.2-1.4-0.2 c-1.8,0-2.8,1.2-3.2,2.9c-0.3,1.4-0.2,5.5-0.2,5.5v1H64c0.2-3.4,0.5-6.6,0.5-12h3.1L67.5,85z"></path> </g> </svg> 